<svg width="162" height="162" viewBox="0 0 162 162" fill="none" xmlns="http://www.w3.org/2000/svg">
<g clip-path="url(#clip0_22_944)">
<path d="M112.01 102.61C108.26 98.51 105.12 93.78 102.71 88.52C98.95 80.24 90.96 74.54 81.73 74.62C72.49 74.7 64.59 80.53 60.96 88.88C58.65 94.21 55.57 99 51.87 103.13C47.91 107.58 45.5 113.61 45.54 120.22C45.64 133.82 56.08 144.75 68.84 144.64C70.52 144.63 72.19 144.42 73.77 144.03C79.36 142.69 85.09 142.64 90.7 143.88C92.29 144.22 93.95 144.42 95.63 144.41C108.4 144.3 118.67 133.18 118.58 119.59C118.53 112.98 116.04 107 112.01 102.61Z" fill="#FAA51C"/>
<path d="M41.02 81.65C42.76 91.41 39.25 100.75 33.2 102.51C27.13 104.27 20.81 97.78 19.08 88.02C17.34 78.26 20.85 68.92 26.9 67.16C32.97 65.4 39.29 71.89 41.02 81.65Z" fill="#FAA51C"/>
<path d="M131.57 72.0202C137.48 69.4102 143.18 74.8302 144.28 84.1002C145.38 93.3802 141.48 103 135.56 105.59C129.65 108.2 123.95 102.78 122.85 93.5102C121.75 84.2302 125.65 74.6102 131.57 72.0202Z" fill="#FAA51C"/>
<path d="M70.79 35.1999C74.56 43.8199 72.86 54.5599 66.99 59.2099C61.11 63.8599 53.3 60.6299 49.53 52.0099C45.76 43.3899 47.46 32.6499 53.33 27.9999C59.2 23.3599 67.01 26.5799 70.78 35.1999H70.79Z" fill="#FAA51C"/>
<path d="M114.88 52.23C111.49 60.31 104.1 63.32 98.38 58.95C92.65 54.57 90.77 44.47 94.16 36.39C97.55 28.31 104.94 25.3 110.67 29.68C116.39 34.06 118.27 44.15 114.88 52.23Z" fill="#FAA51C"/>
<path d="M7.98998 107.29C12.92 115.52 15.54 125.73 15.61 137.04C15.61 138.05 15.66 139.04 15.72 140.02C15.96 143.89 16.13 147.1 16.16 150.34L16.26 161H21.63L21.53 150.3C21.5 146.88 21.33 143.51 21.09 139.55C21 138.69 20.99 137.85 20.98 136.8C20.89 124.32 17.89 112.76 12.3 103.43C9.83998 99.3201 8.10998 94.6701 7.14998 89.6401C5.59998 81.3901 6.30998 72.9001 9.12998 65.6901C12.41 57.3801 18.29 51.5001 25.27 49.5801C26.47 49.2401 27.76 49.0401 29.26 48.9601C30.68 48.8901 31.83 47.4701 31.81 45.7301C31.91 24.9101 44.27 7.90011 59.3 7.80011C66.3 7.75011 73.07 11.3801 78.31 18.0301C79.34 19.3301 81.19 19.3201 82.2 18.0001C87.32 11.2801 94.02 7.56011 101.03 7.51011C116.06 7.41011 128.69 24.2701 129.2 45.0501C129.24 46.7901 130.4 48.1901 131.83 48.2501C133.33 48.2701 134.78 48.4901 136.07 48.8101C143.09 50.6301 149.07 56.4201 152.5 64.6901C155.47 71.8501 156.32 80.3401 154.92 88.6101C154.05 93.6601 152.4 98.3201 150.02 102.47C144.57 111.9 141.78 123.48 141.95 136.17C141.95 137.05 141.93 137.87 141.89 138.73C141.72 142.74 141.61 146.08 141.64 149.49L141.74 161H147.19L147.09 149.48C147.06 146.24 147.17 143.03 147.34 139.16C147.38 138.19 147.41 137.2 147.4 135.98C147.24 124.9 149.7 114.66 154.48 106.36C157.28 101.49 159.22 95.9901 160.23 90.0601C161.86 80.3401 160.86 70.3201 157.34 61.8601C153.2 51.7601 145.86 44.6901 137.23 42.4601C136.34 42.2001 135.4 42.0401 134.46 41.9201C132.76 18.9801 118.21 0.880105 101.01 1.0001C93.36 1.0501 86.06 4.6501 80.22 11.2101C74.23 4.72011 66.9 1.2401 59.25 1.2901C42.06 1.4101 27.81 19.6901 26.54 42.6901C25.68 42.7901 24.88 42.9601 24.07 43.1901C15.51 45.5401 8.29998 52.7101 4.30998 62.8301C0.959981 71.3501 0.119981 81.3801 1.93998 91.0701C3.05998 97.0001 5.09998 102.46 7.98998 107.29Z" fill="white" stroke="white" stroke-width="2" stroke-miterlimit="10"/>
</g>
<defs>
<clipPath id="clip0_22_944">
<rect width="162" height="162" fill="white"/>
</clipPath>
</defs>
</svg>
