<?xml version="1.0" encoding="UTF-8"?>
<svg id="Layer_1" data-name="Layer 1" xmlns="http://www.w3.org/2000/svg" viewBox="0 0 84.4 94.99">
  <path d="M35.52,56.87c1.99,0,3.9.31,5.73.98l14.75,5.27V2.38c0-1.48-1.4-2.61-2.85-2.34l-26.46,5.35c-1.13.23-1.91,1.21-1.91,2.34v52.03l3.36-1.25c2.3-1.09,4.84-1.64,7.38-1.64h0ZM42.91,12.08c0-.95.77-1.72,1.72-1.72h3.54c.95,0,1.72.77,1.72,1.72v3.54c0,.95-.77,1.72-1.72,1.72h-3.54c-.95,0-1.72-.77-1.72-1.72v-3.54ZM42.91,23.73c0-.95.77-1.73,1.72-1.73h3.54c.95,0,1.72.77,1.72,1.73v3.54c0,.95-.77,1.72-1.72,1.72h-3.54c-.95,0-1.72-.77-1.72-1.72v-3.54ZM42.91,35.38c0-.95.77-1.72,1.72-1.72h3.54c.95,0,1.72.77,1.72,1.72v3.54c0,.95-.77,1.72-1.72,1.72h-3.54c-.95,0-1.72-.77-1.72-1.72v-3.54ZM42.91,47.02c0-.95.77-1.72,1.72-1.72h3.54c.95,0,1.72.77,1.72,1.72v3.54c0,.95-.77,1.72-1.72,1.72h-3.54c-.95,0-1.72-.77-1.72-1.72v-3.54ZM30.87,12.07c0-.95.77-1.72,1.72-1.72h3.54c.95,0,1.72.77,1.72,1.72v3.54c0,.95-.77,1.72-1.72,1.72h-3.54c-.95,0-1.72-.77-1.72-1.72v-3.54ZM30.87,23.73c0-.95.77-1.73,1.72-1.73h3.54c.95,0,1.72.77,1.72,1.73v3.54c0,.95-.77,1.72-1.72,1.72h-3.54c-.95,0-1.72-.77-1.72-1.72v-3.54ZM30.87,35.37c0-.95.77-1.72,1.72-1.72h3.54c.95,0,1.72.77,1.72,1.72v3.54c0,.95-.77,1.72-1.72,1.72h-3.54c-.95,0-1.72-.77-1.72-1.72v-3.54ZM30.87,47.02c0-.95.77-1.72,1.72-1.72h3.54c.95,0,1.72.77,1.72,1.72v3.54c0,.95-.77,1.72-1.72,1.72h-3.54c-.95,0-1.72-.77-1.72-1.72v-3.54Z"/>
  <path d="M79.92,54.45V20.33c0-1.05-.7-1.99-1.75-2.3l-14.52-3.94c-1.48-.43-3,.7-3,2.3v47.78l14.91-8.51c1.33-.74,2.85-1.17,4.37-1.21h0ZM73.79,50.57c0,.95-.77,1.72-1.72,1.72h-3.54c-.95,0-1.72-.77-1.72-1.72v-3.54c0-.95.77-1.72,1.72-1.72h3.54c.95,0,1.72.77,1.72,1.72v3.54ZM73.79,38.92c0,.95-.77,1.72-1.72,1.72h-3.54c-.95,0-1.72-.77-1.72-1.72v-3.54c0-.95.77-1.72,1.72-1.72h3.54c.95,0,1.72.77,1.72,1.72v3.54ZM73.79,27.27c0,.95-.77,1.72-1.72,1.72h-3.54c-.95,0-1.72-.77-1.72-1.72v-3.54c0-.95.77-1.73,1.72-1.73h3.54c.95,0,1.72.77,1.72,1.73v3.54Z"/>
  <path d="M84.18,62.4c-.43-1.21-1.35-2.17-2.56-2.61-1.17-.43-2.52-.3-3.6.3l-16.41,9.33c.17.95.22,1.95.04,2.91-.74,3.73-4.08,6.34-7.86,6.08l-11.78-.84c-1.22-.09-2.16-1.12-2.12-2.35.04-1.3,1.15-2.3,2.45-2.21l11.76.84c1.48.09,2.78-.91,3.08-2.34.22-1.39-.56-2.73-1.87-3.26l-15.76-5.64c-3.08-1.09-6.51-.87-9.42.57l-11.07,4.12v23.22l27.09,3.73c4.95.52,9.81-1.21,13.37-4.64l23.57-22.75c1.17-1.13,1.61-2.91,1.09-4.47h0Z"/>
  <path d="M3.56,63.69h6.88c1.96,0,3.56,1.59,3.56,3.56v24.19c0,1.96-1.59,3.56-3.56,3.56H3.56c-1.96,0-3.56-1.59-3.56-3.56v-24.19c0-1.96,1.59-3.56,3.56-3.56h0Z"/>
</svg>