<svg xmlns="http://www.w3.org/2000/svg" xmlns:xlink="http://www.w3.org/1999/xlink" version="1.1" x="0px" y="0px" viewBox="0 0 100 125" enable-background="new 0 0 100 100" xml:space="preserve"><g><path d="M43.077,57.361c0.572-0.12,0.919-0.698,0.756-1.26c-0.423-1.46-1.373-4.117-3.061-5.854   c-3.154-3.245-7.749-2.551-10.005-1.021l-0.249,0.168l-0.287,0.739c-0.097,0.39-0.167,0.672-0.167,1.191   c0,3.464,3,6.281,6.687,6.281c1.848,0,3.58-0.702,4.839-1.944c0.131,0.375,0.238,0.718,0.322,1.006   C42.058,57.17,42.566,57.468,43.077,57.361z M40.403,54.011c-0.897,1.016-2.222,1.597-3.651,1.597   c-2.584,0-4.687-1.921-4.687-4.281c0-0.236,0.019-0.344,0.082-0.604c0.55-0.317,1.258-0.567,2.038-0.69   c-0.489,0.555-0.795,1.275-0.795,2.073c0,1.74,1.411,3.151,3.151,3.151c1.74,0,3.151-1.411,3.151-3.151   c0-0.011-0.003-0.021-0.003-0.032c0.366,0.449,0.701,0.937,0.979,1.458L40.403,54.011z"/><path d="M69.5,49.396l-0.248-0.168c-2.256-1.53-6.853-2.224-10.005,1.021c-1.714,1.762-2.427,4.452-2.703,5.938   c-0.107,0.577,0.31,1.117,0.894,1.171c0.517,0.048,0.981-0.306,1.076-0.816c0.037-0.199,0.084-0.424,0.14-0.666   c1.236,1.109,2.874,1.732,4.613,1.732c3.687,0,6.687-2.817,6.687-6.281c0-0.525-0.071-0.811-0.175-1.228L69.5,49.396z    M63.268,55.608c-1.43,0-2.754-0.581-3.65-1.597l-0.219-0.394c0.244-0.544,0.565-1.055,0.93-1.523c0,0.004-0.001,0.007-0.001,0.011   c0,1.74,1.411,3.151,3.151,3.151c1.74,0,3.151-1.411,3.151-3.151c0-0.797-0.306-1.517-0.794-2.072   c0.78,0.122,1.489,0.373,2.038,0.689c0.062,0.25,0.081,0.359,0.081,0.604C67.954,53.687,65.852,55.608,63.268,55.608z"/><circle cx="56.531" cy="66.329" r="0.865"/><circle cx="59.848" cy="67.459" r="0.865"/><circle cx="55.652" cy="69.189" r="0.865"/><circle cx="43.264" cy="66.329" r="0.865"/><circle cx="39.948" cy="67.459" r="0.865"/><circle cx="44.143" cy="69.189" r="0.865"/><path d="M87.996,76.065c-0.86,0.383-2.375,0.971-4.366,1.434c4.981-5.17,7.224-12.115,6.511-20.376   c-0.726-8.42-4.153-13.504-5.698-15.403c-0.29-0.356-0.434-0.801-0.429-1.26c0.055-5.684-0.631-14.244-1.853-19.023   c-0.444-1.738-1.168-3.796-2.837-4.281c-1.791-0.515-3.693,0.872-6.801,3.801c-1.906,1.796-3.74,4.074-5.247,6.143   c-2.316-0.584-9.864-2.33-17.321-2.33c-7.02,0-14.091,1.549-16.819,2.218c-1.565-2.037-3.432-4.268-5.303-6.031   c-3.106-2.928-5.007-4.319-6.801-3.801c-1.669,0.484-2.393,2.542-2.837,4.281c-1.161,4.544-2.074,12.785-1.687,18.943   c0.032,0.514-0.12,1.016-0.455,1.408c-1.683,1.968-5.234,7.03-5.951,15.336c-0.717,8.307,1.551,15.286,6.592,20.466   c-2.203-0.474-3.869-1.12-4.791-1.529c-0.473-0.21-1.022-0.023-1.274,0.429l-0.002,0.003c-0.286,0.51-0.08,1.159,0.453,1.399   c1.45,0.654,4.447,1.771,8.41,2.162c0.385,0.294,0.775,0.585,1.183,0.863c4.919,3.354,10.695,4.433,14.673,4.747   c0.405,0.032,0.816,0.046,1.228,0.046c2.193,0,4.385-0.404,5.625-0.679c0.058-0.013,0.101-0.048,0.154-0.069   c1.66,1.479,4.033,2.811,7.83,2.811c3.808,0,6.323-1.673,7.62-2.849c0.077,0.041,0.15,0.088,0.239,0.108   c1.24,0.275,3.433,0.679,5.626,0.679c0.411,0,0.823-0.014,1.229-0.046c3.979-0.314,9.754-1.393,14.672-4.747   c0.426-0.29,0.834-0.593,1.236-0.901c3.766-0.424,6.612-1.49,8.014-2.122c0.534-0.241,0.739-0.89,0.453-1.4   C89.018,76.04,88.469,75.854,87.996,76.065z M64.74,83.668c-1.932,0.151-4.082-0.161-5.525-0.442   c0.756-1.324,0.991-2.799,1.002-2.871l-1.977-0.303c-0.003,0.015-0.256,1.558-1.019,2.578c-0.239,0.321-2.475,3.14-7.039,3.14   c-4.014,0-6.074-1.698-7.559-3.36c-0.448-0.5-1.01-1.82-1.26-2.535l-1.889,0.658c0.068,0.195,0.608,1.706,1.301,2.74   c-1.434,0.267-3.449,0.537-5.274,0.395c-3.337-0.263-8.004-1.103-12.21-3.489c1.488-0.053,3.06-0.221,4.707-0.559   c3.126-0.641,5.655-1.774,7.671-3.04c1.613,0.982,3.626,1.495,5.687,1.495c1.39,0,2.8-0.23,4.119-0.701   c2.058-0.735,3.595-1.962,4.452-3.503c0.89,1.364,2.347,2.448,4.234,3.123c1.318,0.471,2.728,0.701,4.117,0.7   c1.987,0,3.923-0.487,5.506-1.401c2.084,1.381,4.753,2.638,8.114,3.328c1.769,0.363,3.451,0.528,5.034,0.566   C72.733,82.567,68.072,83.405,64.74,83.668z M49.354,65.047c-0.342-0.835-1.072-1.45-1.954-1.645l-0.737-0.163   c-0.043-0.106-0.024-0.173-0.014-0.205c0.045-0.153,0.19-0.273,0.231-0.306l2.094,0.277c0.588,0.078,1.184,0.08,1.773,0.006   l2.204-0.276c0.065,0.061,0.148,0.178,0.158,0.291c0.002,0.026,0.008,0.091-0.081,0.188l-0.803,0.194   c-0.816,0.197-1.498,0.753-1.855,1.512l-0.071,0.15C50.107,65.477,49.525,65.462,49.354,65.047z M80.023,78.085   c-2.278,0.21-4.894,0.157-7.721-0.423c-2.718-0.558-4.948-1.534-6.745-2.631c1.104-0.988,1.81-2.067,2.236-3.14   c1.127,0.292,2.38,0.493,3.776,0.493c1.526,0,3.204-0.228,5.014-0.796c1.072-0.338,2.13-0.767,3.157-1.281   c0.502-0.251,0.68-0.883,0.406-1.373l-0.001-0.002c-0.264-0.473-0.852-0.636-1.336-0.395c-0.92,0.458-1.867,0.841-2.825,1.143   c-3.041,0.956-5.645,0.813-7.695,0.285c0.119-0.975,0.048-1.887-0.12-2.648c-0.134-0.606-0.797-0.929-1.367-0.687l-0.009,0.004   c-0.446,0.19-0.683,0.668-0.584,1.142c0.083,0.397,0.148,0.923,0.123,1.519c-0.996-0.432-1.772-0.915-2.299-1.29   c-0.201-0.268-0.525-0.433-0.88-0.386c-0.525,0.068-0.896,0.549-0.828,1.074c0.001,0.006,0.005,0.011,0.006,0.018   c-0.004,0.309,0.12,0.616,0.393,0.815c0.686,0.501,1.766,1.176,3.169,1.745c-0.365,0.863-1.004,1.757-2.051,2.585   c-2.02-1.544-3.283-3.124-3.908-4.021c-0.29-0.417-0.841-0.548-1.29-0.311l-0.003,0.002c-0.006,0.003-0.009,0.009-0.015,0.012   c-0.342,0.151-0.565,0.501-0.514,0.89c0.002,0.012,0.009,0.021,0.011,0.033c0.008,0.176,0.047,0.352,0.155,0.51   c0.646,0.942,1.85,2.46,3.713,3.995c-2.102,0.89-4.832,0.97-7.154,0.142c-1.897-0.677-3.206-1.832-3.686-3.252   c-0.181-0.539-0.277-1.148-0.323-1.732c0.018-0.466,0.022-0.909,0.008-1.271c-0.002-0.049-0.026-0.089-0.035-0.136   c0.002-0.051,0.001-0.114,0.003-0.162c0.006-0.136-0.019-0.265-0.064-0.385c0.134-0.078,0.262-0.168,0.377-0.282l0.126-0.124   l0.94-1.999c0.178-0.145,0.33-0.269,0.508-0.414l1.231-0.297l0.161-0.118c0.892-0.649,1.233-1.623,0.914-2.603   c-0.306-0.937-1.138-1.616-1.979-1.616l-2.519,0.307c-0.424,0.052-0.853,0.05-1.277-0.007l-2.2-0.292l-0.131-0.009   c-0.81,0-1.67,0.607-2.046,1.444c-0.397,0.884-0.225,1.843,0.475,2.631l0.215,0.242l1.434,0.318   c0.189,0.159,0.346,0.291,0.535,0.45l0.797,1.943l0.144,0.143c0.13,0.129,0.277,0.226,0.43,0.31   c-0.031,0.089-0.067,0.176-0.071,0.276c-0.018,0.453-0.014,1.023,0.025,1.625c-0.03,0.703-0.116,1.47-0.342,2.138   c-0.479,1.419-1.787,2.574-3.683,3.251c-2.372,0.847-5.179,0.752-7.301-0.196c2.097-1.643,3.429-3.313,4.121-4.322   c0.338-0.492,0.165-1.165-0.362-1.445c-0.45-0.239-1.002-0.105-1.292,0.313c-0.66,0.953-2.044,2.672-4.289,4.302   c-1.029-0.844-1.636-1.75-1.978-2.62c1.5-0.585,2.638-1.301,3.356-1.825c0.289-0.211,0.408-0.541,0.387-0.868   c0.003-0.016,0.013-0.028,0.015-0.043c0.061-0.474-0.273-0.908-0.747-0.969c-0.238-0.031-0.466,0.039-0.642,0.176   c-0.068,0.03-0.138,0.052-0.2,0.097c-0.55,0.403-1.425,0.956-2.572,1.437c-0.021-1.209,0.329-2.085,0.362-2.164l-0.921-0.39   l0.098,0.042c-0.571-0.245-1.236,0.079-1.37,0.686c-0.158,0.716-0.229,1.566-0.138,2.475c-2.027,0.495-4.573,0.607-7.534-0.324   c-0.956-0.3-1.903-0.683-2.826-1.142c-0.485-0.241-1.072-0.077-1.336,0.396l-0.001,0.002c-0.274,0.49-0.096,1.122,0.406,1.373   c1.03,0.515,2.088,0.944,3.158,1.28c1.809,0.569,3.487,0.796,5.014,0.796c1.311,0,2.495-0.179,3.57-0.442   c0.4,1.075,1.083,2.16,2.154,3.159c-1.723,0.995-3.815,1.87-6.338,2.388c-2.675,0.549-5.16,0.618-7.355,0.444   c-6.172-4.923-8.917-11.91-8.149-20.81c0.856-9.918,6.139-14.924,6.191-14.972l0.368-0.338l-0.049-0.498   c-0.601-6.03,0.327-14.846,1.53-19.556c0.584-2.286,1.164-2.77,1.457-2.855c1.027-0.292,3.622,2.157,4.872,3.335   c3.489,3.288,7.093,8.464,8.426,10.451c0.303,0.452,0.909,0.575,1.368,0.281l0,0c0.472-0.302,0.607-0.929,0.295-1.395   c-0.466-0.697-1.201-1.769-2.106-3.012c3.085-0.712,9.39-1.968,15.511-1.968c6.478,0,13.213,1.41,16.079,2.089   c-0.816,1.193-1.471,2.221-1.893,2.902c-0.296,0.478-0.137,1.101,0.348,1.386c0.469,0.275,1.068,0.13,1.354-0.332   c1.24-1.995,4.582-7.132,8.05-10.402c1.252-1.179,3.862-3.626,4.872-3.335c0.294,0.085,0.873,0.569,1.457,2.855   c1.266,4.953,1.937,14.146,1.768,19.624l-0.011,0.437l0.309,0.306c0.05,0.05,5.002,5.062,5.859,14.997   C88.915,66.183,86.178,73.163,80.023,78.085z"/><path d="M79.428,28.812c-0.138-2.554-0.257-4.759-1.718-5.315c-1.222-0.466-2.349,0.676-2.719,1.049   c-1.856,1.873-3.542,4.255-5.086,6.549c-0.475,0.705-1.032,1.597-1.426,2.237c-0.268,0.437-0.341,0.949-0.206,1.443   c0.136,0.496,0.477,0.92,0.935,1.162v0c0.61,0.322,1.347,0.846,1.841,1.215c0.358,0.267,0.816,0.353,1.246,0.231l0.786-0.222   c0.279-0.079,0.573,0.066,0.68,0.336l0.455,1.14l3.157,1.463c0.176,0.092,0.406,0.16,0.658,0.16c0.219,0,0.453-0.051,0.683-0.179   c0.762-0.427,1.091-1.444,1.066-3.362c-0.012-0.97-0.043-3.545-0.278-6.685C79.473,29.646,79.45,29.231,79.428,28.812z    M77.726,37.589c-0.003,0.22-0.23,0.364-0.43,0.271l-1.356-0.628c-0.104-0.048-0.186-0.134-0.228-0.241l-0.614-1.54   c-0.191-0.479-0.713-0.737-1.21-0.596l-1.641,0.464c-0.132,0.037-0.267,0.016-0.379-0.065c-0.315-0.227-0.734-0.512-1.194-0.786   c-0.219-0.13-0.293-0.411-0.158-0.627c0.329-0.529,0.71-1.128,1.047-1.629c1.158-1.72,3.724-4.798,4.868-6.12   c0.251-0.29,0.719-0.147,0.778,0.232c0.125,0.808,0.184,1.891,0.221,2.595c0.023,0.435,0.047,0.863,0.077,1.265   C77.7,32.744,77.742,36.316,77.726,37.589z"/><path d="M31.696,34.775c0.135-0.494,0.062-1.007-0.207-1.444c-0.394-0.64-0.951-1.532-1.424-2.236   c-1.545-2.295-3.231-4.677-5.086-6.549c-0.371-0.374-1.497-1.516-2.719-1.049c-1.46,0.556-1.58,2.761-1.718,5.315   c-0.023,0.42-0.045,0.834-0.074,1.223c-0.234,3.11-0.265,5.594-0.279,6.75c-0.023,1.853,0.306,2.87,1.067,3.296   c0.229,0.129,0.464,0.18,0.682,0.18c0.252,0,0.482-0.068,0.658-0.16l3.159-1.464l0.453-1.138c0.108-0.271,0.403-0.416,0.683-0.337   l0.801,0.226c0.418,0.118,0.865,0.035,1.213-0.225c0.494-0.369,1.24-0.9,1.856-1.226C31.219,35.695,31.56,35.271,31.696,34.775z    M29.094,34.59c-0.466,0.288-0.876,0.577-1.162,0.788l-2.276-0.643c-0.256-0.072-0.524,0.06-0.623,0.307l-0.842,2.116l-1.529,0.708   c-0.192,0.089-0.414-0.047-0.416-0.259c-0.017-1.261,0.024-4.871,0.216-7.423c0.03-0.402,0.054-0.83,0.077-1.265   c0.038-0.706,0.097-1.791,0.222-2.6c0.059-0.377,0.524-0.52,0.774-0.231c1.142,1.32,3.712,4.402,4.871,6.123   c0.293,0.436,0.62,0.947,0.916,1.421C29.527,33.959,29.421,34.388,29.094,34.59z"/></g><text x="0" y="115" fill="#000000" font-size="5px" font-weight="bold" font-family="'Helvetica Neue', Helvetica, Arial-Unicode, Arial, Sans-serif">Created by WINGNOIR</text><text x="0" y="120" fill="#000000" font-size="5px" font-weight="bold" font-family="'Helvetica Neue', Helvetica, Arial-Unicode, Arial, Sans-serif">from the Noun Project</text></svg>