<svg xmlns="http://www.w3.org/2000/svg" version="1.1" viewBox="-5.0 -10.0 110.0 135.0">
 <path d="m84.363 50.645c-0.55859-0.003906-1.9961-1.8672-3.5703-5.3125-0.75391-1.6484-1.1406-3.3711-1.5547-5.1953-0.15234-0.67578-0.30469-1.3516-0.47656-2.0234-0.53906-2.0977-1.4336-3.9141-2.3477-5.4883 0.007813-0.019531 0.027344-0.027344 0.03125-0.046875 3.457-13.523 2.5859-23.18-2.2695-25.211-3.9844-1.6602-9.5 2.3359-14.422 10.441-0.62891-0.29688-1.3477-0.60156-2.1094-0.83203-1.0625-0.32422-2.2539-0.52734-3.7422-0.64062-1.9492-0.14844-3.9141-0.10938-5.9258-0.054688-1.4492 0.039062-2.7539 0.09375-4.0586 0.3125-1.3672 0.23047-2.5703 0.72656-3.6641 1.2305-4.9258-8.1172-10.441-12.121-14.434-10.457-4.8633 2.0312-5.7266 11.711-2.2539 25.262-1.0664 1.8359-1.8008 3.5312-2.2578 5.1953-0.16016 0.58594-0.3125 1.168-0.46484 1.7422-1.0977 4.1797-2.1328 8.1328-5.543 11.203-0.15234 0.14062-0.20703 0.35938-0.13281 0.55078 0.074219 0.19141 0.25781 0.32031 0.46484 0.32031h0.003907c1.4141-0.007813 2.8203-0.37109 4.2031-1.0938-2.0586 3.6172-2.3945 7.8594-1.0391 12.883 0.058594 0.21094 0.24609 0.36328 0.46484 0.37109 0.20703 0.003907 0.41797-0.12891 0.49219-0.33594 0.36328-1.0469 0.8125-1.9023 1.3438-2.5508-0.38672 9.668 9.3633 21.812 11.195 22.379 0.42188 0.125 0.70703-0.085938 0.82031-0.3125 0.027343-0.054688 0.042968-0.11719 0.050781-0.17578 0-0.011719 0.10547-1.0469 0.94531-2.9844l0.37891 0.21875c5.3203 3.0703 9.918 5.7227 12.301 12.613 0.046875 0.14062 0.15234 0.25 0.28906 0.30078 0.058594 0.035156 0.12109 0.046875 0.17969 0.046875 0.082031 0 0.16016-0.019531 0.23438-0.058594 0.69531-0.36719 15.965-8.5352 18.727-15.859 0.59766 1.7695 0.79297 3.5977 0.61328 5.6445-0.015626 0.19922 0.085937 0.38672 0.25781 0.48438 0.17188 0.09375 0.38672 0.078124 0.54688-0.042969 7.9023-6.0938 11.68-13.578 11.234-22.273 0.53906 0.65234 1 1.5156 1.3672 2.5781 0.070312 0.20703 0.27734 0.33594 0.49219 0.33594 0.21875-0.007813 0.40625-0.15625 0.46484-0.37109 1.3555-5.0234 1.0156-9.2656-1.0391-12.883 1.3828 0.71875 2.7891 1.0859 4.2031 1.0938 0.27344 0 0.5-0.22266 0.5-0.5 0-0.27734-0.22266-0.50391-0.5-0.50391zm-10.57-42.355c3.1992 1.3359 5.5547 8.2148 1.9023 23.133-0.45703-0.73438-0.95312-1.4453-1.4688-2.1445 2.8945-10.934 0.83984-15.941-1.8086-16.906-2.7461-1-6.2148 1.9219-8.8828 7.4609-0.91406-0.53906-1.875-1.0664-2.8789-1.5781 4.5664-7.4883 9.6992-11.395 13.137-9.9648zm-2.1562 17.867c-2.0117-2.1328-4.4062-4.0469-7.2422-5.8047 2.7617-5.7852 5.8438-7.7109 7.6836-7.043 2.2891 0.83594 3.6328 5.8672 1.3711 14.949-0.57812-0.72266-1.1797-1.4297-1.8125-2.1016zm-45.43-17.867c3.4336-1.4375 8.5742 2.4766 13.145 9.9688-1 0.48438-1.9688 1-2.8984 1.543-2.668-5.5156-6.1289-8.4297-8.8711-7.4297-2.6484 0.96484-4.6992 5.9766-1.8086 16.902-0.22266 0.30078-0.44141 0.59766-0.65234 0.90625-0.28906 0.42187-0.55859 0.83203-0.8125 1.2344-3.6523-14.91-1.3008-21.785 1.8984-23.125zm0.34375 19.973c-2.2578-9.082-0.91406-14.117 1.3711-14.949 1.8359-0.67188 4.9062 1.2461 7.668 7.0039-0.42578 0.26172-0.84766 0.53125-1.2539 0.80469-3.0078 2.0234-5.6133 4.4219-7.7852 7.1406zm52.043 20.062c-0.19922-0.16016-0.48828-0.14453-0.66797 0.035156-0.17969 0.18359-0.19531 0.47266-0.03125 0.67188 2.8438 3.4648 3.7266 7.6211 2.6875 12.672-0.54688-1.0781-1.2109-1.8867-2.0156-2.4531-0.16016-0.11328-0.37109-0.12109-0.53906-0.023438-0.16797 0.097657-0.26562 0.28516-0.24609 0.48047 0.82812 8.5469-2.4961 15.938-9.8867 21.977 0.054688-2.3086-0.375-4.375-1.3242-6.4219-0.09375-0.20312-0.3125-0.31641-0.53125-0.28516-0.21875 0.035157-0.39062 0.21484-0.41797 0.4375-0.75781 6.4609-15.18 14.758-18.086 16.367-2.5625-6.8359-7.4141-9.6367-12.547-12.598l-0.85547-0.49609c-0.078124-0.046875-0.16406-0.066406-0.25-0.066406-0.050781 0-0.10156 0.007812-0.14844 0.023437-0.13281 0.042969-0.24219 0.14062-0.30469 0.26562-0.71484 1.5391-1.0273 2.6328-1.1641 3.2461-2.2109-1.6719-11.367-13.379-10.051-22.422 0.027344-0.19922-0.0625-0.39453-0.23438-0.5-0.16797-0.10547-0.38281-0.097656-0.55078 0.015625-0.80469 0.5625-1.4688 1.375-2.0156 2.4531-1.0391-5.0508-0.15625-9.207 2.6875-12.672 0.16406-0.19922 0.14844-0.48828-0.03125-0.67188-0.17969-0.17969-0.46875-0.19531-0.66797-0.035156-1.4766 1.1953-2.9375 1.9219-4.4258 2.1953 2.8359-3.0898 3.8086-6.7969 4.832-10.695 0.14844-0.57422 0.30078-1.1523 0.46094-1.7344 0.62109-2.2656 1.7852-4.6016 3.668-7.3438 2.3477-3.418 5.3594-6.3789 8.9492-8.7969 1.7617-1.1875 3.707-2.2695 5.7773-3.2188 1.1953-0.54688 2.2344-0.95312 3.4141-1.1523 1.2422-0.21094 2.5117-0.25781 3.9219-0.29688 1.9844-0.054688 3.9219-0.09375 5.8203 0.050781 1.4141 0.10938 2.5352 0.29688 3.5273 0.60156 1.0234 0.3125 1.9961 0.77734 2.7305 1.1484 4.4961 2.2734 8.0391 4.8125 10.824 7.7617 1.4766 1.5664 2.8086 3.293 3.9492 5.1289 1.0898 1.75 2.293 3.8789 2.9336 6.3906 0.17188 0.66406 0.32031 1.332 0.47266 1.9961 0.40625 1.793 0.82422 3.6445 1.6172 5.3867 0.75 1.6484 1.7109 3.4922 2.6797 4.6719-1.3203-0.32812-2.6328-1.0195-3.9609-2.0938zm-16.004 2.3555c-4.6797 1.8086-8.1367 2.1836-10.273 1.1094-0.65234-0.32422-1.1719-0.79297-1.5938-1.3867 1.625-0.57812 2.7891-2.9258 2.957-4.7461 0.066406-0.71875-0.29297-1.4141-0.91406-1.7852-1.8594-1.1172-3.7148-1.1914-5.5664-0.050782-0.57422 0.35547-0.94531 1-0.88672 1.668 0.16797 1.9453 1.2617 4.3828 2.9492 4.9336-0.41797 0.58594-0.9375 1.0469-1.582 1.3672-2.1406 1.0703-5.5938 0.69531-10.277-1.1094-0.25391-0.097657-0.54688 0.027343-0.64844 0.28516-0.10156 0.25781 0.027344 0.54688 0.28516 0.64844 3 1.1562 5.4922 1.7383 7.5352 1.7695 0.86328 4.8516 2.7773 7.7734 5.1602 7.8281h0.066406c2.4023 0 4.4688-2.9102 5.5742-7.8281 2.0508-0.023437 4.5547-0.60937 7.5664-1.7734 0.25781-0.10156 0.38672-0.39062 0.28516-0.64844-0.085937-0.25391-0.375-0.38281-0.63672-0.28125zm-12.781 9.5312h-0.042969c-1.793-0.039063-3.4062-2.7148-4.168-6.8555 0.95703-0.082031 1.8008-0.30078 2.5352-0.66797 0.51953-0.25781 0.95703-0.61719 1.3555-1.0156l0.058594 4.3516c0.003906 0.27344 0.22656 0.49219 0.5 0.49219h0.007813c0.27734-0.003906 0.49609-0.23047 0.49219-0.50781l-0.058594-4.3594c0.40625 0.41016 0.85156 0.77734 1.3789 1.0391 0.72656 0.36328 1.5586 0.58203 2.5 0.66797-0.98047 4.1875-2.7383 6.8555-4.5586 6.8555zm9.9219-23.664c-2.0156 0-3.6484 1.6328-3.6484 3.6484 0 0.10156 0.023438 0.19531 0.03125 0.29297-2-1.9375-4.0273-2.9258-6.0586-2.9297h-0.019532c-2.3086 0-4.6289 1.2695-6.918 3.7695 0.11719-0.35938 0.19531-0.73438 0.19531-1.1328 0-2.0156-1.6328-3.6484-3.6484-3.6484-2.0156 0-3.6484 1.6328-3.6484 3.6484 0 2.0156 1.6328 3.6484 3.6484 3.6484 0.65625 0 1.2656-0.1875 1.7969-0.49219-0.33203 0.45313-0.66797 0.92578-1 1.4336-0.15234 0.23047-0.085938 0.53906 0.14453 0.69141 0.23438 0.15234 0.54297 0.085938 0.69141-0.14453 2.9492-4.5 5.8906-6.7773 8.7383-6.7773h0.015625c2.8398 0.007812 5.75 2.2891 8.6523 6.7734 0.09375 0.14844 0.25781 0.22656 0.42188 0.22656 0.09375 0 0.1875-0.027344 0.27344-0.078126 0.23437-0.14844 0.29687-0.46094 0.14844-0.69141-0.24219-0.375-0.48438-0.73047-0.73047-1.0742 0.29297 0.078124 0.59766 0.12891 0.91797 0.12891 2.0156 0 3.6484-1.6328 3.6484-3.6484-0.003906-2.0078-1.6367-3.6445-3.6523-3.6445zm-19.461 4.2578c-0.67188 0-1.2148-0.54297-1.2148-1.2148s0.54297-1.2148 1.2148-1.2148 1.2148 0.54297 1.2148 1.2148-0.54297 1.2148-1.2148 1.2148zm18.246 0c-0.67188 0-1.2148-0.54297-1.2148-1.2148s0.54297-1.2148 1.2148-1.2148 1.2148 0.54297 1.2148 1.2148-0.54297 1.2148-1.2148 1.2148zm-3.2344 21.008c0.15234 0.23047 0.089844 0.53906-0.14062 0.69531-1.8945 1.2656-3.6367 1.8945-5.3203 1.8945-1.6914 0-3.3242-0.63672-4.9922-1.9141-0.21875-0.16797-0.26172-0.48047-0.09375-0.70312 0.16797-0.21875 0.48047-0.26172 0.69922-0.09375 2.9766 2.2773 5.7148 2.2734 9.1484-0.019531 0.23438-0.14844 0.54297-0.089844 0.69922 0.14062z"/>
<text x="0.0" y="117.5" font-size="5.0" font-weight="bold" font-family="Arbeit Regular, Helvetica, Arial-Unicode, Arial, Sans-serif" fill="#000000">Created by Kael</text><text x="0.0" y="122.5" font-size="5.0" font-weight="bold" font-family="Arbeit Regular, Helvetica, Arial-Unicode, Arial, Sans-serif" fill="#000000">from Noun Project</text></svg>