<?xml version="1.0" encoding="UTF-8"?>
<svg id="Layer_2" data-name="Layer 2" xmlns="http://www.w3.org/2000/svg" viewBox="0 0 402 254.51">
  <defs>
    <style>
      .cls-1 {
        fill: #faa51a;
      }

      .cls-1, .cls-2 {
        stroke-width: 0px;
      }

      .cls-3 {
        stroke: #10294b;
        stroke-miterlimit: 10;
        stroke-width: 2px;
      }

      .cls-3, .cls-2 {
        fill: #10294b;
      }
    </style>
  </defs>
  <g id="Layer_2-2" data-name="Layer 2">
    <g>
      <path id="path1-8" class="cls-2" d="M44.67,151.24c-1.89-3.15-2.83-6.82-2.83-10.99v-63.89c0-5.03.92-9.04,2.75-12.05,1.83-3.03,4.2-4.56,7.09-4.56h18.34c4.57,0,8.65,1.51,12.23,4.52,3.59,3.01,6.37,7.1,8.34,12.27,1.98,5.18,2.97,10.94,2.97,17.29-.13,9.06-2.03,16.57-5.7,22.53-3.67,5.96-8.62,9.53-14.84,10.69-1.28.26-2.53.38-3.75.38h-7.73v13.08c0,4.52-.99,8.22-2.95,11.12-1.88,2.88-4.15,4.3-6.84,4.3s-5.14-1.55-7.09-4.69ZM61.54,100.98h7.89c1.29,0,2.4-.7,3.34-2.13.96-1.47,1.45-3.15,1.45-5.03s-.46-3.59-1.36-4.98c-1-1.42-2.14-2.13-3.42-2.13h-7.89v14.27ZM158.41,143.15c0-2.3.03-3.96.08-4.98l7-62.83c.35-3.66,1.21-6.84,2.58-9.54,1.39-2.69,3.11-4.62,5.17-5.79,1.78-1.02,3.51-1.53,5.2-1.53,2.89,0,5.46,1.32,7.73,3.96,2.28,2.62,3.81,6.09,4.59,10.44l6.28,33.1,6.34-33.1c.87-4.4,2.43-7.89,4.7-10.48,2.26-2.61,4.82-3.92,7.7-3.92,1.67,0,3.4.51,5.2,1.53,2.09,1.17,3.81,3.1,5.14,5.79,1.33,2.67,2.2,5.86,2.61,9.54l6.92,62.83c.11,1.02.17,2.68.17,4.98-.24,3.66-1.29,6.72-3.14,9.16-1.86,2.42-4.02,3.62-6.48,3.62-1.1,0-2.18-.26-3.25-.77-1.82-.99-3.31-2.57-4.47-4.73-1.17-2.18-1.85-4.65-2.03-7.41l-3-37.95-7.84,39.74c-.61,3.24-1.35,5.69-2.2,7.33-.85,1.62-1.92,2.76-3.2,3.41-1.35.73-2.49,1.11-3.42,1.11-1.89,0-3.55-1.01-4.97-3.02-1.41-2.01-2.47-4.95-3.2-8.82l-7.95-39.74-2.92,37.95c-.21,2.76-.89,5.23-2.06,7.41-1.17,2.16-2.64,3.74-4.42,4.73-1.11.51-2.2.77-3.25.77-2.45,0-4.61-1.2-6.48-3.62-1.86-2.44-2.9-5.49-3.14-9.16ZM98.9,155.03c-1.93-1.28-3.42-3.05-4.47-5.32-1.04-2.3-1.56-4.94-1.56-7.92,0-2.21.38-4.91,1.14-8.09l14.67-58.1c1.37-5.3,3.35-9.39,5.95-12.27,2.59-2.9,5.56-4.34,8.89-4.34s6.35,1.45,8.95,4.34c2.59,2.88,4.57,6.96,5.95,12.27l14.67,58.1c.74,3.35,1.11,6.05,1.11,8.09,0,2.98-.52,5.62-1.56,7.92-1.04,2.28-2.52,4.05-4.45,5.32-1.33.91-2.7,1.36-4.09,1.36-1.97,0-3.79-.97-5.47-2.9-1.69-1.93-2.93-4.6-3.72-8.01l-.97-4.34h-20.7l-1.06,4.34c-.74,3.32-1.96,5.98-3.64,7.97-1.69,1.96-3.54,2.94-5.56,2.94-1.39,0-2.75-.46-4.09-1.36ZM118.94,114.82h9.23l-4.64-25.34-4.59,25.34Z"/>
      <path id="path3-7" class="cls-2" d="M106.19,89.44c-2.42-11.11-6.17-19.4-10.05-22.14-1.94-1.37-2.62-4.14-1.72-6.89.82-2.5,2.79-4.45,5.56-5.51,7.43-2.81,17.41-1.16,20.08,5.67-1.23,2.62-2.21,5.25-2.95,7.86-2.88-7.18-8.1-8.8-10.99-7.49-1.11.51-1.9,1.44-2.16,2.57-.49,2.1.99,3.7,2.87,5.75,1.71,1.86,3.64,3.97,4.45,6.78,1.33,4.6,3.1,5,4.11,4.79.01,1,.05,2,.14,3,.29,3.43.48,6.75.65,9.97-1.84,1-8.23,3.78-10-4.34h0Z"/>
      <path id="path4-6" class="cls-2" d="M116.34,71.53c-.53,2.49-.81,4.97-.9,7.43-.59-.05-1.7-.64-2.69-4.09-.89-3.06-3-5.38-4.7-7.23-1.42-1.55-2.89-3.14-2.62-4.28.07-.31.48-.55.71-.65,2.3-1.04,7.65.46,10.19,8.76l.02.06h0Z"/>
      <path id="path5-1" class="cls-2" d="M141.1,89.44c2.42-11.11,6.17-19.4,10.05-22.14,1.94-1.37,2.62-4.14,1.72-6.89-.82-2.5-2.79-4.45-5.56-5.51-7.43-2.81-17.41-1.16-20.08,5.67,1.23,2.62,2.21,5.25,2.95,7.86,2.88-7.18,8.1-8.8,10.99-7.49,1.11.51,1.9,1.44,2.16,2.57.49,2.1-.99,3.7-2.87,5.75-1.71,1.86-3.64,3.97-4.45,6.78-1.33,4.6-3.1,5-4.11,4.79-.01,1-.05,2-.14,3-.29,3.43-.48,6.75-.65,9.97,1.84,1,8.23,3.78,10-4.34h0Z"/>
      <path id="path7-8" class="cls-2" d="M130.95,71.53c.53,2.49.81,4.97.9,7.43.59-.05,1.7-.64,2.69-4.09.89-3.06,3-5.38,4.7-7.23,1.42-1.55,2.89-3.14,2.62-4.28-.07-.31-.48-.55-.71-.65-2.3-1.04-7.65.46-10.19,8.76l-.02.06h0Z"/>
    </g>
    <path class="cls-1" d="M305.93,154.34c4.02-5.11,8.65-9.38,13.8-12.64,8.09-5.09,13.7-16.01,13.7-28.69,0-12.69-5.61-23.61-13.7-28.69-5.17-3.23-9.8-7.51-13.8-12.64-4.3-5.49-10.15-8.87-16.58-8.87-13.24,0-23.97,14.24-23.97,31.79,0,2.31.18,4.6.56,6.78,1.26,7.69,1.26,15.58,0,23.27-.35,2.18-.56,4.45-.56,6.78,0,17.55,10.74,31.79,23.97,31.79,6.43,0,12.28-3.37,16.58-8.87h0Z"/>
    <path class="cls-1" d="M314.8,54.29c-9.51,2.3-18.58-2.62-20.24-10.96-1.66-8.36,4.71-16.98,14.22-19.26,9.51-2.3,18.58,2.62,20.24,10.96,1.66,8.36-4.71,16.98-14.22,19.26Z"/>
    <path class="cls-1" d="M331.6,180.76c2.49,8.16-2.83,15.93-11.87,17.35-9.05,1.42-18.38-4.04-20.85-12.2-2.49-8.16,2.83-15.93,11.87-17.35,9.05-1.42,18.38,4.04,20.85,12.2Z"/>
    <path class="cls-1" d="M365.44,94.26c-8.42,5.1-18.87,2.66-23.34-5.46-4.48-8.13-1.27-18.83,7.15-23.93,8.42-5.1,18.87-2.66,23.35,5.47,4.47,8.12,1.26,18.82-7.16,23.92Z"/>
    <path class="cls-1" d="M353.58,151.43c-7.84-4.74-10.71-14.92-6.4-22.74,4.31-7.83,14.16-10.32,22-5.57,7.84,4.74,10.71,14.92,6.4,22.75-4.31,7.82-14.15,10.31-21.99,5.56Z"/>
    <path class="cls-3" d="M1.04,197.16c0-2.03,1.78-3.69,3.97-3.69h215.93c4.12,0,8.17.19,13.02.48,1.04.07,2.03.12,3.1.12,15.36-.07,29.36,3.9,40.72,11.51,5.01,3.31,10.63,5.65,16.74,6.9,10,2.03,20.27.97,28.97-3.03,10.04-4.61,17.1-12.77,19.36-22.39.4-1.77.68-3.76.71-5.82.08-1.96,1.78-3.54,3.89-3.57,25.16-.45,45.68-17.59,45.68-38.25,0-9.62-4.45-18.89-12.54-26.01-1.58-1.4-1.58-3.95,0-5.35,8.09-7.12,12.54-16.38,12.54-26.01,0-20.66-20.47-37.85-45.68-38.25-2.11,0-3.81-1.58-3.89-3.54-.08-2.06-.31-3.83-.71-5.49-2.26-9.62-9.33-17.78-19.36-22.39-8.7-3.98-18.97-5.06-28.97-3.03-6.11,1.25-11.75,3.57-16.74,6.9-11.35,7.56-25.36,11.54-40.47,11.51-1.27,0-2.29,0-3.33.12-4.8.29-8.88.48-13.02.48H5.03c-2.19,0-3.97-1.66-3.97-3.69,0-2.03,1.78-3.69,3.97-3.69h215.93c3.92,0,7.81-.19,12.49-.48,1.19-.07,2.39-.12,3.61-.12,13.69.04,26.07-3.43,36.07-10.1,5.87-3.9,12.49-6.64,19.68-8.11,11.75-2.39,23.88-1.11,34.16,3.62,12.21,5.6,20.83,15.6,23.61,27.4.28,1.11.48,2.22.59,3.4,27.82,2.03,49.83,21.84,49.83,45.47,0,10.52-4.28,20.55-12.18,28.7,7.89,8.11,12.18,18.18,12.18,28.7,0,23.64-22.02,43.41-49.8,45.47-.15,1.3-.36,2.58-.68,3.8-2.77,11.84-11.39,21.84-23.65,27.4-10.28,4.73-22.41,5.98-34.16,3.62-7.18-1.47-13.81-4.21-19.68-8.11-10-6.67-22.38-10.19-35.79-10.1-1.47,0-2.67-.04-3.84-.12-4.68-.29-8.57-.48-12.49-.48H4.97c-2.19,0-3.97-1.66-3.97-3.69l.04-.11Z"/>
  </g>
</svg>