<?xml version="1.0" encoding="utf-8"?>
<!-- Generator: Adobe Illustrator 28.3.0, SVG Export Plug-In . SVG Version: 6.00 Build 0)  -->
<svg version="1.1" id="Layer_1" xmlns="http://www.w3.org/2000/svg" xmlns:xlink="http://www.w3.org/1999/xlink" x="0px" y="0px"
	 viewBox="0 0 10 15" style="enable-background:new 0 0 10 15;" xml:space="preserve">
<style type="text/css">
	.st0{fill:#F9A41C;}
	.st1{fill:#FFFFFF;stroke:#FFFFFF;stroke-width:2;stroke-miterlimit:10;}
</style>
<g>
	
		<text transform="matrix(0.7979 0 0 1 -221.5849 -66.124)" style="fill:#FFFFFF; font-family:'Anja-Eliane-Nornal'; font-size:67.2433px;">Poppy and Max</text>
	<g>
		<path class="st0" d="M-261.2-81.1c-1.6-1.9-3-4.1-4.1-6.6c-1.6-3.9-5.1-6.6-9.2-6.5c-4,0-7.5,2.8-9.1,6.7c-1,2.5-2.4,4.7-4,6.7
			c-1.7,2.1-2.8,4.9-2.8,8c0,6.4,4.6,11.5,10.2,11.5c0.7,0,1.5-0.1,2.2-0.3c2.4-0.6,4.9-0.7,7.4-0.1c0.7,0.2,1.4,0.3,2.2,0.2
			c5.6-0.1,10.1-5.3,10-11.7C-258.4-76.3-259.5-79.1-261.2-81.1L-261.2-81.1z"/>
		<path class="st0" d="M-292.2-91c0.8,4.6-0.8,9-3.4,9.8c-2.7,0.8-5.4-2.2-6.2-6.8c-0.8-4.6,0.8-9,3.4-9.8
			C-295.8-98.6-293-95.6-292.2-91z"/>
		<path class="st0" d="M-252.7-95.5c2.6-1.2,5.1,1.3,5.6,5.7c0.5,4.4-1.2,8.9-3.8,10.1c-2.6,1.2-5.1-1.3-5.6-5.7
			C-257-89.8-255.3-94.3-252.7-95.5z"/>
		<path class="st0" d="M-279.2-112.8c1.6,4,0.9,9.1-1.7,11.3c-2.6,2.2-6,0.7-7.6-3.4s-0.9-9.1,1.7-11.3
			C-284.3-118.4-280.9-116.8-279.2-112.8z"/>
		<path class="st0" d="M-260-104.8c-1.5,3.8-4.7,5.2-7.2,3.2c-2.5-2.1-3.3-6.8-1.8-10.6c1.5-3.8,4.7-5.2,7.2-3.2
			C-259.3-113.3-258.5-108.6-260-104.8z"/>
		<path class="st1" d="M-306.7-78.9c2.2,3.9,3.3,8.7,3.3,14c0,0.5,0,0.9,0,1.4c0.1,1.8,0.2,3.3,0.2,4.8l0,5h2.3l0-5
			c0-1.6-0.1-3.2-0.2-5c0-0.4,0-0.8,0-1.3c0-5.9-1.3-11.3-3.8-15.7c-1.1-1.9-1.8-4.1-2.2-6.5c-0.7-3.9-0.4-7.9,0.9-11.2
			c1.4-3.9,4-6.7,7.1-7.6c0.5-0.2,1.1-0.3,1.7-0.3c0.6,0,1.1-0.7,1.1-1.5c0-9.8,5.4-17.8,12-17.8c3.1,0,6,1.7,8.3,4.8
			c0.4,0.6,1.3,0.6,1.7,0c2.2-3.2,5.2-4.9,8.2-4.9c6.6,0,12.1,7.9,12.3,17.6c0,0.8,0.5,1.5,1.1,1.5c0.7,0,1.3,0.1,1.9,0.3
			c3.1,0.9,5.7,3.6,7.2,7.5c1.3,3.4,1.7,7.3,1.1,11.2c-0.4,2.4-1.1,4.6-2.1,6.5c-2.4,4.4-3.6,9.9-3.5,15.8c0,0.4,0,0.8,0,1.2
			c-0.1,1.9-0.1,3.5-0.1,5.1l0,5.4h2.4l0-5.4c0-1.5,0-3,0.1-4.8c0-0.5,0-0.9,0-1.5c-0.1-5.2,1-10,3.1-13.9c1.2-2.3,2.1-4.9,2.5-7.7
			c0.7-4.6,0.3-9.3-1.3-13.2c-1.8-4.7-5-8.1-8.8-9.1c-0.4-0.1-0.8-0.2-1.2-0.3c-0.7-10.8-7.1-19.3-14.6-19.2c-3.3,0-6.5,1.7-9.1,4.8
			c-2.6-3-5.8-4.7-9.2-4.7c-7.5,0.1-13.7,8.6-14.3,19.4c-0.4,0-0.7,0.1-1.1,0.2c-3.7,1.1-6.9,4.5-8.6,9.2c-1.5,4-1.8,8.7-1,13.3
			C-308.8-83.8-307.9-81.2-306.7-78.9z"/>
	</g>
</g>
</svg>
