<?xml version="1.0" encoding="utf-8"?>
<!-- Generator: Adobe Illustrator 28.3.0, SVG Export Plug-In . SVG Version: 6.00 Build 0)  -->
<svg version="1.1" id="Layer_1" xmlns="http://www.w3.org/2000/svg" xmlns:xlink="http://www.w3.org/1999/xlink" x="0px" y="0px"
	 viewBox="0 0 2 4" style="enable-background:new 0 0 2 4;" xml:space="preserve">
<style type="text/css">
	.st0{fill:#F9A41C;}
	.st1{fill:#FFFFFF;stroke:#FFFFFF;stroke-width:2;stroke-miterlimit:10;}
</style>
<g>
	<path class="st0" d="M-278.3-94.1c-3.8-4.1-6.9-8.8-9.3-14.1c-3.8-8.3-11.8-14-21-13.9c-9.2,0.1-17.1,5.9-20.8,14.3
		c-2.3,5.3-5.4,10.1-9.1,14.2c-4,4.5-6.4,10.5-6.3,17.1c0.1,13.6,10.5,24.5,23.3,24.4c1.7,0,3.3-0.2,4.9-0.6
		c5.6-1.3,11.3-1.4,16.9-0.1c1.6,0.3,3.2,0.5,4.9,0.5c12.8-0.1,23-11.2,22.9-24.8C-271.7-83.8-274.2-89.7-278.3-94.1L-278.3-94.1z"
		/>
	<path class="st0" d="M-349.3-115.1c1.7,9.8-1.8,19.1-7.8,20.9c-6.1,1.8-12.4-4.7-14.1-14.5c-1.7-9.8,1.8-19.1,7.8-20.9
		C-357.3-131.3-351-124.8-349.3-115.1z"/>
	<path class="st0" d="M-258.7-124.7c5.9-2.6,11.6,2.8,12.7,12.1c1.1,9.3-2.8,18.9-8.7,21.5c-5.9,2.6-11.6-2.8-12.7-12.1
		C-268.5-112.5-264.6-122.1-258.7-124.7z"/>
	<path class="st0" d="M-319.5-161.5c3.8,8.6,2.1,19.4-3.8,24c-5.9,4.6-13.7,1.4-17.5-7.2c-3.8-8.6-2.1-19.4,3.8-24
		C-331.1-173.4-323.3-170.2-319.5-161.5z"/>
	<path class="st0" d="M-275.4-144.5c-3.4,8.1-10.8,11.1-16.5,6.7c-5.7-4.4-7.6-14.5-4.2-22.6c3.4-8.1,10.8-11.1,16.5-6.7
		C-273.9-162.7-272-152.6-275.4-144.5z"/>
	<path class="st1" d="M-382.3-89.4c4.9,8.2,7.5,18.4,7.6,29.7c0,1,0,2,0.1,3c0.2,3.9,0.4,7.1,0.4,10.3l0.1,10.7h5.4l-0.1-10.7
		c0-3.4-0.2-6.8-0.4-10.8c-0.1-0.9-0.1-1.7-0.1-2.8c-0.1-12.5-3.1-24-8.7-33.4c-2.5-4.1-4.2-8.8-5.1-13.8c-1.6-8.2-0.8-16.7,2-23.9
		c3.3-8.3,9.2-14.2,16.1-16.1c1.2-0.3,2.5-0.5,4-0.6c1.4-0.1,2.6-1.5,2.5-3.2c0.1-20.8,12.5-37.8,27.5-37.9c7,0,13.8,3.6,19,10.2
		c1,1.3,2.9,1.3,3.9,0c5.1-6.7,11.8-10.4,18.8-10.5c15-0.1,27.7,16.8,28.2,37.5c0,1.7,1.2,3.1,2.6,3.2c1.5,0,2.9,0.2,4.2,0.6
		c7,1.8,13,7.6,16.4,15.9c3,7.2,3.8,15.6,2.4,23.9c-0.9,5.1-2.5,9.7-4.9,13.9c-5.4,9.4-8.2,21-8.1,33.7c0,0.9,0,1.7-0.1,2.6
		c-0.2,4-0.3,7.4-0.2,10.8l0.1,11.5h5.5l-0.1-11.5c0-3.2,0.1-6.5,0.3-10.3c0-1,0.1-2,0.1-3.2c-0.2-11.1,2.3-21.3,7.1-29.6
		c2.8-4.9,4.7-10.4,5.8-16.3c1.6-9.7,0.6-19.7-2.9-28.2c-4.1-10.1-11.5-17.2-20.1-19.4c-0.9-0.3-1.8-0.4-2.8-0.5
		c-1.7-22.9-16.3-41-33.5-40.9c-7.7,0.1-14.9,3.7-20.8,10.2c-6-6.5-13.3-10-21-9.9c-17.2,0.1-31.4,18.4-32.7,41.4
		c-0.9,0.1-1.7,0.3-2.5,0.5c-8.6,2.4-15.8,9.5-19.8,19.6c-3.4,8.5-4.2,18.5-2.4,28.2C-387.2-99.7-385.2-94.3-382.3-89.4z"/>
</g>
</svg>
