<?xml version="1.0" encoding="UTF-8"?>
<svg id="Layer_1" xmlns="http://www.w3.org/2000/svg" version="1.1" viewBox="0 0 110 77.6">
  <!-- Generator: Adobe Illustrator 29.0.1, SVG Export Plug-In . SVG Version: 2.1.0 Build 192)  -->
  <defs>
    <style>
      .st0 {
        font-size: 21px;
      }

      .st0, .st1 {
        font-family: Biscuit-Glitch, 'Biscuit Glitch';
        font-style: italic;
      }

      .st1 {
        font-size: 24px;
      }
    </style>
  </defs>
  <text class="st1" transform="translate(17.8 27.1)"><tspan x="0" y="0">Poppy</tspan></text>
  <text class="st1" transform="translate(32.6 65.4)"><tspan x="0" y="0" xml:space="preserve"> Max</tspan></text>
  <path d="M41.4,30.3c-1.1-.1-4,1.1-5,.8-1.1-.3-4.7-3.5-9.2-1.5-4.5,2-5.6,5.5-5,8,.6,2.5,2.4,6.9,6.3,5.2,3.9-1.7,1.4-6.1,1.4-6.1,0,0,3.4,4.2-.9,6.7-.8.5-1.8.6-2.5.6s-.8.4-.7.8c.1,1.1,0,3-1.5,4.8-2.2,2.5-8.3,3.4-8.5,9.1s-.8,1-1.3.5-1-1.6-.8-3.2c0,0-1.4,2,0,4.3,0,0-1.1-.6-1.3-1.8,0,0-1.1,4.6,5.5,7.3s.2,0,.3,0h12.2c.5,0,.8-.4.8-.9,0-.8-.6-1.7-2.5-1.6s-1-.7-.6-1.1c1-1.2,2-3.1,1.5-5.6-1-4.5-5.7-1.4-5.7-1.4,0,0,5.1-4.1,6.6,1.3.6,2.2-.2,4-.9,5.1s0,1.1.5,1.1c1,.2,2.1.7,2.4,2.3s.4.7.8.7h1.3c.7,0,1.1-.5.9-1-.4-1.3-.9-3.6-.1-6.2,1.2-4,5.7-9.4-.3-15.8s-.3-.5-.2-.7c.2-.6.6-1.5,1.8-2.3s.5-.7.2-1.1c-.7-1-.6-1.9-.6-1.9.4,1.2,1.5,1.7,2.7,2,0,0,0,0,.1,0,3.9-.7,3.2-6.2,3.1-7.1-.1-.9.3-1.4-.6-1.5h0ZM32.1,33.7c.3-2.7,2.3-1,2.3-1-1.2.3-2.3,1-2.3,1Z"/>
  <path d="M61.8,47.5c-.1.4-.1.9,0,1.3-.6,0-1.3,0-1.9-.2-.6-.2-1.1-.7-1.1-1.4,0-1.1.7-1.8,1.7-2.1.7.5,1.5.8,2.3,1-.4.4-.8.8-.9,1.4h0ZM62.3,40c-.1-.3-.5-.5-.8-.3-.2.2-.3.5-.3.8,0,.5.5,1.2.9.6,0,0,0,0,0,0,.2-.3.3-.8.1-1.2h0ZM63.2,35.1s-.1-.2-.2-.3c-.3-.4-.8-.9-1.4-1.4-.1-.1-.5-.3-.6-.4s0,0,0,0c0,0-.1.1-.1.2-.2.7-.2,2.5,0,3.3,0,0,0,.1,0,.1,0,0,0,0,0,0h.2c.5-.5.9-.9,1.5-1.2,0,0,0,0,.1,0,.1,0,.4-.2.5-.3h0ZM64.5,41.9s0,0,0-.1c0,0-.2,0-.3-.1-.1,0-.2,0-.3,0h0c-.1,0-.5,0-.5.1,0,0,0,.2,0,.3,0,0,.1.2.2.2,0,0,.1.1.2.2,0,0,.2,0,.2,0,0,0,.1,0,.2-.1.1,0,.2-.2.3-.3,0,0,0,0,0,0,0,0,0,0,0,0h0ZM67.3,40.4c-.1-.4-.6-.5-.9-.3-.3.2-.3.6-.3.9,0,.4.3.8.6.8s.4,0,.5-.2c.2-.3.3-.8.2-1.2h0ZM69.1,36.1c.5.2,1,.4,1.4.6,0,0,.2.1.3.2.2.1.3.2.5.3,0,0,0,0,0,0,0,0,0,0,0,0,0,0,0-.2,0-.2,0-.8-.2-1.8-.5-2.7,0-.2-.3-.7-.4-.9,0,0-.1-.1-.2-.1s0,0-.2,0c-.5.4-1.6,1.8-1.9,2.4,0,0,0,.1,0,.1,0,0,.4.2.7.2.1,0,.2,0,.3,0h0ZM72.2,44.1c-.8-.4-1.7-.7-2.7-1h-.3c-.2-.2-.4,0-.5.2s0,.4.3.5h.3c1,.4,1.8.7,2.6,1,0,0,0,0,.2,0,.2,0,.3,0,.4-.2,0-.2,0-.4-.2-.5h0ZM73.1,41.8c0-.2-.1-.4-.4-.4-1.1-.1-2.3,0-3.5.2-.2,0-.4.3-.3.5,0,.2.2.3.4.3s0,0,0,0c1.2-.2,2.3-.3,3.3-.2.2,0,.4-.1.4-.4h0Z"/>
  <text class="st0" transform="translate(73.6 46.6)"><tspan x="0" y="0">nd</tspan></text>
</svg>