<?xml version="1.0" encoding="UTF-8"?>
<svg id="Layer_1" data-name="Layer 1" xmlns="http://www.w3.org/2000/svg" viewBox="0 0 71.29 65.29">
  <defs>
    <style>
      .cls-1 {
        letter-spacing: 0em;
      }

      .cls-2 {
        font-family: Newyear-Goo, 'Newyear Goo';
        font-size: 16px;
      }

      .cls-3 {
        font-family: Biscuit-Glitch, 'Biscuit Glitch';
        font-size: 24px;
        font-style: italic;
      }

      .cls-4 {
        letter-spacing: -.01em;
      }

      .cls-5 {
        letter-spacing: -.04em;
      }
    </style>
  </defs>
  <text class="cls-3" transform="translate(5.61 20.84)"><tspan class="cls-5" x="0" y="0">P</tspan><tspan class="cls-4" x="15.39" y="0">o</tspan><tspan class="cls-1" x="27.02" y="0">pp</tspan></text>
  <text class="cls-3" transform="translate(20.44 59.07)"><tspan x="0" y="0" xml:space="preserve"> Max</tspan></text>
  <path d="M29.21,23.94c-1.12-.13-3.98,1.14-5.03.82-1.05-.32-4.68-3.47-9.18-1.5-4.5,1.97-5.65,5.54-5.04,8.04.61,2.5,2.4,6.86,6.3,5.18,3.9-1.68,1.35-6.11,1.35-6.11,0,0,3.38,4.22-.87,6.68-.82.48-1.77.58-2.46.58-.45,0-.79.39-.75.83.12,1.09.03,3.01-1.5,4.81-2.16,2.53-8.31,3.36-8.51,9.07-.02.69-.84,1.04-1.31.54-.55-.58-1-1.57-.8-3.23,0,0-1.41,1.98-.04,4.32,0,0-1.06-.62-1.3-1.8,0,0-1.08,4.57,5.53,7.28.1.04.2.06.31.06h12.25c.46,0,.82-.41.76-.87-.1-.76-.58-1.72-2.46-1.63-.6.03-.98-.66-.59-1.13,1.01-1.23,1.99-3.12,1.47-5.56-.96-4.5-5.68-1.37-5.68-1.37,0,0,5.11-4.08,6.65,1.26.63,2.19-.2,4.04-.93,5.15-.3.44-.06,1.05.46,1.15.97.18,2.14.73,2.38,2.34.06.38.37.67.75.67h1.35c.69,0,1.06-.51.9-1-.42-1.25-.91-3.56-.13-6.24,1.16-3.98,5.68-9.37-.29-15.78-.18-.2-.26-.47-.18-.73.17-.56.63-1.55,1.76-2.31.36-.24.49-.73.24-1.09-.7-1.01-.62-1.87-.62-1.87.43,1.16,1.54,1.75,2.67,2.05.05,0,.08-.02.13-.03,3.93-.68,3.22-6.18,3.07-7.08-.14-.89.29-1.39-.65-1.5h0ZM19.94,27.39c.3-2.72,2.32-1,2.32-1-1.25.34-2.32,1-2.32,1Z"/>
  <path d="M57.08,45.07c-4.36-.24-6.98-1.92-6.4-4.12.37-1.43,1.64-2.57,3.91-3.55,1.26-.54,1.31-.61,1.03-1.41-1.02-2.95-.98-6.13.12-8.57.09-.21.35-.65.56-.99.64-1.01.69-1.15.72-2.2.04-1.41.2-1.86.98-2.72.74-.83.95-1.34,1.04-2.63.14-1.83.31-2.34,1.51-4.5.21-.38.59-1.15.85-1.71,1-2.19,1.41-2.6,1.98-2,.29.3.36.56.47,1.61.14,1.3-.39,1.95-.13,2.02.13.04.62.19.71.19.54,0,1.54.73,1.98,1.3.3.39.47-.57,1.55-1.05,1.49-.66,2.21-.82,2.48-.56.08.08.15.21.15.27,0,.21-.41.97-1,1.85-.77,1.15-1.21,2.03-1.33,2.67-.23,1.2-.43,1.6-1.18,2.37-.81.83-.87,1.04-.52,1.91.28.7.3,1.17.1,1.91-.33,1.19-.28,1.47.49,2.78,1.05,1.78,1.34,3.52,1,5.86-.3,2.04-1.53,4.33-2.62,4.88-1.11.56-2.48.78-6.02.94-2.48.12-3.4.23-4.08.52-.78.33-.59.87.46,1.28.62.24,1.58.27,3.09.09,1.52-.18,2.34,0,3.07.66.41.38.53.62.53,1.09,0,.94-.75,1.59-1.95,1.7-.64.06-2.98.12-3.55.08h0Z"/>
  <text class="cls-2" transform="translate(36.81 38.81)"><tspan x="0" y="0">&amp;</tspan></text>
</svg>