<?xml version="1.0" encoding="UTF-8"?>
<svg id="Layer_1" data-name="Layer 1" xmlns="http://www.w3.org/2000/svg" viewBox="0 0 98.95 66.85">
  <defs>
    <style>
      .cls-1 {
        font-size: 24px;
      }

      .cls-1, .cls-2 {
        fill: #08284b;
        font-family: Biscuit-Glitch, 'Biscuit Glitch';
        font-style: italic;
      }

      .cls-2 {
        font-size: 21px;
      }

      .cls-3 {
        fill: orange;
      }

      .cls-4 {
        letter-spacing: 0em;
      }

      .cls-5 {
        letter-spacing: -.01em;
      }

      .cls-6 {
        letter-spacing: -.04em;
      }
    </style>
  </defs>
  <text class="cls-1" transform="translate(7.47 20.84)"><tspan class="cls-6" x="0" y="0">P</tspan><tspan class="cls-5" x="15.39" y="0">o</tspan><tspan class="cls-4" x="27.02" y="0">ppy</tspan></text>
  <text class="cls-1" transform="translate(19.47 60.64)"><tspan x="0" y="0" xml:space="preserve"> Max</tspan></text>
  <path class="cls-3" d="M29.21,25.14c-1.12-.13-3.98,1.14-5.03.82-1.05-.32-4.68-3.47-9.18-1.5-4.5,1.97-5.65,5.54-5.04,8.04.61,2.5,2.4,6.86,6.3,5.18,3.9-1.68,1.35-6.11,1.35-6.11,0,0,3.38,4.22-.87,6.68-.82.48-1.77.58-2.46.58-.45,0-.79.39-.75.83.12,1.09.03,3.01-1.5,4.81-2.16,2.53-8.31,3.36-8.51,9.07-.02.69-.84,1.04-1.31.54-.55-.58-1-1.57-.8-3.23,0,0-1.41,1.98-.04,4.32,0,0-1.06-.62-1.3-1.8,0,0-1.08,4.57,5.53,7.28.1.04.2.06.31.06h12.25c.46,0,.82-.41.76-.87-.1-.76-.58-1.72-2.46-1.63-.6.03-.98-.66-.59-1.13,1.01-1.23,1.99-3.12,1.47-5.56-.96-4.5-5.68-1.37-5.68-1.37,0,0,5.11-4.08,6.65,1.26.63,2.19-.2,4.04-.93,5.15-.3.44-.06,1.05.46,1.15.97.18,2.14.73,2.38,2.34.06.38.37.67.75.67h1.35c.69,0,1.06-.51.9-1-.42-1.25-.91-3.56-.13-6.24,1.16-3.98,5.68-9.37-.29-15.78-.18-.2-.26-.47-.18-.73.17-.56.63-1.55,1.76-2.31.36-.24.49-.73.24-1.09-.7-1.01-.62-1.87-.62-1.87.43,1.16,1.54,1.75,2.67,2.05.05,0,.08-.02.13-.03,3.93-.68,3.22-6.18,3.07-7.08-.14-.89.29-1.39-.65-1.5h0ZM19.94,28.58c.3-2.72,2.32-1,2.32-1-1.25.34-2.32,1-2.32,1Z"/>
  <text class="cls-2" transform="translate(62.1 45.5)"><tspan x="0" y="0">nd</tspan></text>
  <path class="cls-3" d="M60.06,40.32l-.15-.39-.1-.17-.18-.27-.12-.17-.29-.32-.36-.29-.44-.25-.51-.29-.43-.25-.42-.29-.36-.31-.35-.33-.39-.45-.25-.31-.29-.34-.35-.37-.38-.32-.25-.16-.24-.14-.32-.14-.37-.07-.46-.05-.44.04-.44.1-.41.15-.56.36-.5.54-.3.48-.16.42-.14.48-.17.72-.17.64-.23.52-.29.61-.95,1.38-.09.12-.19.45-.12.49v.58s.04.51.04.51l.11.56.14.36.28.48.35.42.33.27.41.26.51.19.57.12h.41s.59-.11.59-.11l.54-.26.31-.25.12-.14.29-.26.27-.26.24-.23.27-.2.21-.17.26-.14.29-.09.36-.02h.27s.47.1.47.1l.57.14.49.18.44.13.42.08h.39s.32-.06.32-.06l.25-.08.38-.2.46-.36.31-.34.3-.48.19-.43.13-.55.04-.51-.04-.42-.1-.42-.07-.24ZM57.15,40.04l.02.23-.02.29-.07.31-.11.24-.17.27-.17.19-.26.2-.21.11-.14.04-.18.03h-.22s-.24-.04-.24-.04l-.25-.07-.27-.1-.32-.08-.26-.06h-.15s-.2.02-.2.02l-.16.05-.15.08-.12.09-.15.11-.13.13-.15.14-.16.15-.07.08-.18.14-.3.15-.33.06h-.23s-.32-.07-.32-.07l-.29-.11-.23-.14-.19-.15-.2-.24-.16-.27-.08-.2-.06-.31-.02-.29v-.33s.07-.28.07-.28l.11-.25.05-.07.53-.77.16-.34.13-.29.09-.36.09-.4.08-.27.09-.24.17-.27.28-.3.31-.2.23-.09.25-.06.24-.02.26.03.2.04.18.08.14.08.14.09.21.18.2.2.16.19.14.18.22.25.19.18.2.17.23.16.24.14.29.16.25.14.2.16.16.18.06.09.1.15.05.1.08.22.04.13.05.24Z"/>
  <ellipse class="cls-3" cx="54.2" cy="30.78" rx="2.04" ry="2.91" transform="translate(-3.25 6.61) rotate(-6.77)"/>
  <ellipse class="cls-3" cx="49.08" cy="31.94" rx="2.04" ry="2.91" transform="translate(-7.69 17.57) rotate(-18.85)"/>
  <ellipse class="cls-3" cx="58.9" cy="34.34" rx="2.04" ry="2.89" transform="translate(-.15 .26) rotate(-.26)"/>
  <ellipse class="cls-3" cx="46.4" cy="37.18" rx="2.04" ry="2.89" transform="translate(-11.46 23.46) rotate(-25.37)"/>
</svg>