<svg xmlns="http://www.w3.org/2000/svg" version="1.1" viewBox="-5.0 -10.0 110.0 135.0">
 <path d="m86.43 57.07c0-0.28906-0.019532-0.53906-0.019532-0.73047 0-1.3398-0.42969-2.4414-1.2812-3.2617-1.6094-1.5508-4.2891-1.6602-6.4492-1.5781-1.8984 0.070312-4.1914-0.37891-5.0391-4.5391 0-0.019532 0-0.039063-0.011719-0.058594-1.0312-4.0391-2.6719-6.8516-5.1484-8.8594-3.0391-2.4492-7.3086-3.6406-13.07-3.6406-6.6016 0-12.922 2.1797-18.789 6.4805-4.6406 3.3984-9 8.1289-12.961 14.051-6.7109 10.02-9.9219 19.879-10.059 20.289-0.21094 0.64844 0.14844 1.3516 0.80078 1.5586 0.12891 0.039062 0.26172 0.058594 0.37891 0.058594 0.53125 0 1.0117-0.33984 1.1797-0.85938 0.03125-0.10156 3.2617-9.9805 9.7891-19.719 3.1992-4.7695 6.6484-8.7109 10.289-11.762-2.5898 2.6289-4.7695 5.4609-5.5586 8.0586-2.4219 8.0391 0.82031 16.121 7.2383 18.059 6.4219 1.9414 13.59-3.0117 16.012-11.051 1.3398-4.4492-0.35938-11.711-2.1484-17.301-0.69141-2.1602-2.3984-3.5898-4.3594-4.1016 2.6719-0.83984 5.3906-1.2891 8.1719-1.2891 11.5 0 14.398 5.0898 15.809 10.602 0.46094 2.2109 1.3398 3.8789 2.6094 4.9609 1.0703 0.92188 2.4414 1.3984 4.0391 1.5 0.14844 1.4219 0.78906 2.8008 1.8086 3.8008 1.1289 1.1016 2.7109 1.7305 4.2891 1.7383-0.10156 2.3711-0.67188 5.3594-3.0508 7.7891-2.9414 3-8.0391 4.4805-15.148 4.3984-5.3086-0.19141-7.8594-0.10937-8.4688 0.03125l0.53906 2.4297h-0.039062c0.050781 0 1.3789-0.21094 7.8984 0.019531h0.03125c7.8281 0.089844 13.539-1.6406 16.969-5.1484 4.0117-4.1016 3.8281-9.4102 3.75-11.961zm-5.0195-1.0898c-0.53906-0.53125-0.87891-1.2383-1.0195-1.9805 1.4883 0.070312 2.4883 0.35938 3.0195 0.87891 0.21875 0.21094 0.51953 0.60156 0.51953 1.4688 0 0.19141 0 0.41016 0.011718 0.66016-0.92969-0.011718-1.8711-0.35937-2.5312-1.0195z"/>
 <path d="m68.219 50.441c0 2.8398-4.2578 2.8398-4.2578 0s4.2578-2.8398 4.2578 0"/>
<text x="0.0" y="117.5" font-size="5.0" font-weight="bold" font-family="Arbeit Regular, Helvetica, Arial-Unicode, Arial, Sans-serif" fill="#000000">Created by AppleMagic</text><text x="0.0" y="122.5" font-size="5.0" font-weight="bold" font-family="Arbeit Regular, Helvetica, Arial-Unicode, Arial, Sans-serif" fill="#000000">from Noun Project</text></svg>