<svg xmlns="http://www.w3.org/2000/svg" version="1.1" viewBox="-5.0 -10.0 110.0 135.0">
 <path d="m42.383 38.574c0 3.5039-1.707 6.3477-3.8086 6.3477-2.1016 0-3.8086-2.8438-3.8086-6.3477 0-3.5039 1.707-6.3477 3.8086-6.3477 2.1016 0 3.8086 2.8438 3.8086 6.3477zm19.043-6.3477c-2.1016 0-3.8086 2.8438-3.8086 6.3477 0 3.5039 1.707 6.3477 3.8086 6.3477 2.1016 0 3.8086-2.8438 3.8086-6.3477 0-3.5039-1.707-6.3477-3.8086-6.3477zm-20.027 48.586c-2.6602-0.61719-5.1133-1.543-7.2852-2.7539-0.61328-0.33984-1.3867-0.12109-1.7266 0.49219-0.34375 0.61328-0.12109 1.3867 0.48828 1.7266 2.3828 1.3281 5.0547 2.3398 7.9492 3.0078 0.097656 0.023438 0.19531 0.03125 0.28906 0.03125 0.57812 0 1.1016-0.39844 1.2344-0.98438 0.15625-0.68359-0.26953-1.3633-0.94922-1.5234zm24.488-2.75c-2.1719 1.2109-4.625 2.1367-7.2852 2.7539-0.68359 0.15625-1.1094 0.83984-0.94922 1.5234 0.13672 0.58594 0.66016 0.98438 1.2344 0.98438 0.09375 0 0.19141-0.011719 0.28906-0.03125 2.8945-0.66797 5.5664-1.6797 7.9492-3.0078 0.61328-0.33984 0.83203-1.1133 0.48828-1.7266-0.33984-0.61328-1.1133-0.83203-1.7266-0.49219zm-9.5391-2.6719v5.0781c0 3.5-2.8477 6.3477-6.3477 6.3477s-6.3477-2.8477-6.3477-6.3477v-5.0781c-6.0234 0-7.6172-4.9844-7.6172-7.6172 0-0.69922 0.56641-1.2695 1.2695-1.2695 0.70312 0 1.2695 0.57031 1.2695 1.2695 0.003906 0.51562 0.1875 5.0781 5.0781 5.0781 3.6875 0 4.9062-4.4922 5.0781-5.2188v-3.8008c-3.3359-0.69531-5.0781-4.1016-5.0781-7.4805 0-3.332 3.1953-5.0781 6.3477-5.0781s6.3477 1.7461 6.3477 5.0781c0 3.3789-1.7422 6.7852-5.0781 7.4805v3.8047c0.17969 0.77344 1.3828 5.2188 5.0781 5.2188 5.0195 0 5.0781-4.8711 5.0781-5.0781 0-0.69922 0.56641-1.2695 1.2695-1.2695 0.70313 0 1.2695 0.57031 1.2695 1.2695 0 2.6328-1.5938 7.6172-7.6172 7.6172zm-6.3477-13.965c3.0117 0 3.8086-3.3203 3.8086-5.0781 0-2.0078-2.4922-2.5391-3.8086-2.5391s-3.8086 0.53125-3.8086 2.5391c0 1.7578 0.79688 5.0781 3.8086 5.0781zm3.8086 13.449c-1.7266-0.72266-2.9766-2.1172-3.8086-3.582-0.83203 1.4609-2.082 2.8555-3.8086 3.582v5.5938c0 2.1016 1.707 3.8086 3.8086 3.8086s3.8086-1.707 3.8086-3.8086zm-3.8086-0.75391c-0.70312 0-1.2695 0.57031-1.2695 1.2695v5.0781c0 0.69922 0.56641 1.2695 1.2695 1.2695s1.2695-0.57031 1.2695-1.2695v-5.0781c0-0.69922-0.56641-1.2695-1.2695-1.2695zm40.625-21.582c0 18.391-5.3398 31.738-12.695 31.738-4.7031 0-8.3672-2.918-9.918-5.8125-1.1992-2.2422-1.207-4.543-0.027344-6.3164 0.64062-0.96484 1.418-2.8945 2.1406-5.3633-3.0039-5.793-7.6133-10.887-10.734-13.227-6.3359-4.75-7.1523-15.203-7.75-22.836-0.23828-3.0234-0.67578-8.6484-1.6445-8.6484s-1.4062 5.625-1.6445 8.6484c-0.59766 7.6328-1.418 18.086-7.75 22.836-3.1211 2.3398-7.7266 7.4336-10.734 13.227 0.72266 2.4688 1.5 4.4023 2.1406 5.3633 1.1836 1.7734 1.1719 4.0781-0.027343 6.3164-1.5469 2.8945-5.2148 5.8125-9.918 5.8125-7.3555 0-12.695-13.348-12.695-31.738 0-19.586 17.77-29.875 20.648-31.414 0.89844-1.6211 4.8086-7.9414 11.09-7.9414 4.082 0 5.7383 0.52344 6.9453 0.90625 0.69531 0.21875 1.1523 0.36328 1.9414 0.36328 0.78906 0 1.2461-0.14453 1.9414-0.36328 1.207-0.38281 2.8633-0.90625 6.9453-0.90625 6.2812 0 10.188 6.3203 11.09 7.9414 2.8789 1.5391 20.648 11.828 20.648 31.414zm-60.723 21.016c-2.8672-4.3008-6.5195-19.984-3.9961-30.168l3.3242-18.828c-5.1797 3.3242-17.316 12.746-17.316 27.98 0 14.043 3.8828 29.199 10.156 29.199 3.6328 0 6.5273-2.3164 7.6797-4.4727 0.4375-0.81641 1.0352-2.3828 0.15234-3.7109zm41.133-10.34c1.3047-5.9062 2.043-13.422 0.58203-19.254-0.007813-0.027344-0.011719-0.058594-0.019532-0.085938l-3.7734-21.383c-0.52734-0.97266-3.8984-6.7695-8.9414-6.7695-3.6914 0-5.0703 0.4375-6.1797 0.78516-0.78516 0.24609-1.5273 0.48438-2.707 0.48438-1.1797 0-1.9219-0.23438-2.707-0.48438-1.1055-0.35156-2.4883-0.78516-6.1797-0.78516-5.043 0-8.4141 5.7969-8.9414 6.7695l-3.7734 21.383c-0.003906 0.027344-0.011719 0.058594-0.019531 0.085938-1.457 5.832-0.72266 13.348 0.58203 19.254 3.1055-5.1328 7.1211-9.4414 10.121-11.691 5.4141-4.0625 6.1797-13.855 6.7422-21.004 0.5-6.3789 0.85938-10.988 4.1758-10.988s3.6758 4.6094 4.1758 10.988c0.55859 7.1523 1.3281 16.941 6.7422 21.004 3 2.25 7.0156 6.5586 10.121 11.691zm17.051-10.676c0-15.234-12.137-24.652-17.316-27.98l3.3242 18.828c2.5234 10.184-1.1289 25.867-3.9961 30.168-0.88672 1.3281-0.28516 2.8945 0.15234 3.7109 1.1523 2.1523 4.0469 4.4727 7.6797 4.4727 6.2734 0 10.156-15.156 10.156-29.199z"/>
<text x="0.0" y="117.5" font-size="5.0" font-weight="bold" font-family="Arbeit Regular, Helvetica, Arial-Unicode, Arial, Sans-serif" fill="#000000">Created by Kusnan Prampa</text><text x="0.0" y="122.5" font-size="5.0" font-weight="bold" font-family="Arbeit Regular, Helvetica, Arial-Unicode, Arial, Sans-serif" fill="#000000">from Noun Project</text></svg>