<svg xmlns="http://www.w3.org/2000/svg" viewBox="0 0 64.75 78.94999999999999" x="0px" y="0px"><g><path d="M63.87,32.92c-.24,.29-.65,.38-1.09,.2l-1.53-.63c-.33-.14-.6-.39-.78-.68-.39-.62-.39-1.45,.17-1.79l.71-.44c-.71-.45-1.55-.72-2.55-.77-1.9-.1-4.06,.32-5.74-.79-2.04-1.34-2.2-4.19-3-6.49-1.55-4.47-6.03-7.4-10.65-8.39-4.63-.98-9.42-.34-14.1,.35-1.65-3.31-3.34-6.67-5.91-9.33C17.41,2.1,14.8,.49,11.94,.07c-2.58-.37-5.25,.76-5.83,3.53-.36,1.67,.02,3.4,.25,5.1,.54,3.98,.28,8.08-.81,11.95C3.92,26.49,.44,31.87,.04,37.93c-.38,5.73,2.17,11.44,6.18,15.55,4,4.12,9.35,6.76,14.91,8.23,7.04,1.86,14.55,1.94,21.63,.23,6.68-1.61,13.14-4.94,17.39-10.34,2.14-2.71,3.63-5.95,4.27-9.34,.19-1.01,.32-2.25,.33-3.56,.02-1.93-.21-4.02-.88-5.78Zm-23.56,1.89c-3.9,0-7.06-3.16-7.06-7.06s3.16-7.07,7.06-7.07,7.07,3.16,7.07,7.07-3.16,7.06-7.07,7.06Zm5.46-7.08c0,3.02-2.45,5.47-5.48,5.47s-5.47-2.45-5.47-5.47,2.45-5.48,5.47-5.48,5.48,2.45,5.48,5.48Z"/></g><text x="0" y="78.16" fill="#000000" font-size="5px" font-weight="bold" font-family="'Helvetica Neue', Helvetica, Arial-Unicode, Arial, Sans-serif">Created by Shannon B.</text><text x="0" y="83.16" fill="#000000" font-size="5px" font-weight="bold" font-family="'Helvetica Neue', Helvetica, Arial-Unicode, Arial, Sans-serif">from the Noun Project</text></svg>