<svg xmlns="http://www.w3.org/2000/svg" viewBox="0 0 68 70" x="0px" y="0px"><path fill="#000000" d="M572.098713,320.671186 C572.924721,327.615345 578.833534,333 586,333 C593.731986,333 600,326.731986 600,319 C600,317.895431 600.895431,317 602,317 C603.104569,317 604,317.895431 604,319 C604,328.941125 595.941125,337 586,337 L586,343 C586,351.836556 578.836556,359 570,359 C561.163444,359 554,351.836556 554,343 L554,337 C544.058875,337 536,328.941125 536,319 C536,317.895431 536.895431,317 538,317 C539.104569,317 540,317.895431 540,319 C540,326.731986 546.268014,333 554,333 C561.166466,333 567.075279,327.615345 567.901287,320.671186 C567.697838,320.537449 567.517891,320.365978 567.372533,320.162476 L559.631445,309.324953 C558.347409,307.527302 558.763776,305.029102 560.561426,303.745066 C561.239829,303.260493 562.052687,303 562.886379,303 L577.113621,303 C579.32276,303 581.113621,304.790861 581.113621,307 C581.113621,307.833692 580.853129,308.64655 580.368555,309.324953 L572.627467,320.162476 C572.482109,320.365978 572.302162,320.537449 572.098713,320.671186 Z M568,330.314614 C565.502735,333.400947 562.005514,335.644494 558,336.553591 L558,343 C558,349.627417 563.372583,355 570,355 C576.627417,355 582,349.627417 582,343 L582,336.553591 C577.994486,335.644494 574.497265,333.400947 572,330.314614 L572,342 C572,343.104569 571.104569,344 570,344 C568.895431,344 568,343.104569 568,342 L568,330.314614 Z M570,316.95907 L577.113621,307 L562.886379,307 L570,316.95907 Z" transform="translate(-536 -303)"/><text x="0" y="71" fill="#000000" font-size="5px" font-weight="bold" font-family="'Helvetica Neue', Helvetica, Arial-Unicode, Arial, Sans-serif">Created by Andrejs Kirma</text><text x="0" y="76" fill="#000000" font-size="5px" font-weight="bold" font-family="'Helvetica Neue', Helvetica, Arial-Unicode, Arial, Sans-serif">from the Noun Project</text></svg>