<svg xmlns="http://www.w3.org/2000/svg" version="1.1" viewBox="-5.0 -10.0 110.0 135.0">
 <path d="m28.73 64.262c-0.42578-0.050781-0.82031 0.24609-0.875 0.67578l-0.82031 6.4453c-0.054687 0.42969 0.25 0.82031 0.67578 0.875 0.035156 0.003907 0.066406 0.007813 0.10156 0.007813 0.38672 0 0.72266-0.28906 0.77344-0.68359l0.82031-6.4453c0.054688-0.42969-0.25-0.82031-0.67578-0.875z"/>
 <path d="m31.715 64.715c-0.085938-0.42188-0.50781-0.6875-0.92188-0.60547-0.42188 0.085937-0.69531 0.5-0.60547 0.92578l1.4492 7.0039c0.078125 0.36719 0.40234 0.62109 0.76172 0.62109 0.054687 0 0.10547-0.003906 0.16016-0.015625 0.42188-0.085937 0.69531-0.5 0.60547-0.92578z"/>
 <path d="m85.891 54.113c2.6289-5.2578 3.4531-16.82-5.0547-27.129-5.707-6.918-11.758-7.4531-16.621-7.8867-1.9492-0.17188-3.7891-0.33594-5.3086-0.90234-2.3125-0.85937-3.6719-2.1367-4.875-3.2617-1.4766-1.3828-2.8711-2.6914-5.2227-1.7266-1.332 0.54688-2.1094 1.6445-2.1289 3.0156-0.039063 2.6914 2.625 5.7656 6.4805 7.4805 3.4023 1.5117 6.7344 1.7617 9.6758 1.9805 2.0938 0.15625 4.0664 0.30469 5.875 0.86328 1.1758 0.36328 2.1172 0.91016 2.8906 1.4961-0.39062-0.11719-0.76172-0.17188-1.0859-0.125-1.3516 0.19141-2.2344 0.69531-2.6992 1.5352-0.54297 0.98438-0.42969 2.293 0.33984 4.0078 1.2812 2.8555 3.0117 3.7266 3.8164 3.9844 0.54297 1.0742 2.3047 4.9297 0.90625 7.375-0.62109 1.0898-1.625 1.6602-2.8984 2.3828-0.46484 0.26172-0.95312 0.54688-1.4531 0.87109-0.26562-0.72266-0.75781-1.8164-1.6914-3.2852-1.7227-2.707-3.4375-4.6289-5.9102-6.6328-2.2305-1.8047-4.1367-3.2031-5.8203-4.4336l-0.53516-0.39453c-1.0312-0.75391-2.1172-0.94531-3.0625-0.53906-1.1016 0.47266-1.8281 1.6875-2.043 3.4141-0.14453 1.1562 0.25781 2.3047 1.1562 3.3281 0.98828 1.1211 2.5312 1.9844 3.2188 2.1055 0.15234 0.089843 0.96875 0.65625 3.043 3.3438 1.3164 1.7031 0.89844 2.375-0.22266 4.1719-0.24219 0.39062-0.50781 0.81641-0.77734 1.2891-1.3555 2.4023-1.3398 5.7969-1.293 6.957-2.0938 0.28906-3.668 0.68359-4.2656 0.84375-0.34766-0.19531-0.69922-0.39453-1.0586-0.58984-2.0273-1.1172-4.1211-2.2734-4.7695-3.6445-0.03125-0.0625-0.058594-0.15234-0.089844-0.22266 0.30469-0.41016 0.58984-0.83203 0.84766-1.2695 0.023438-0.035156 0.050782-0.066406 0.066406-0.10938 1.3438-2.2852 2.0547-4.8594 2.0547-7.5625 0-7.9805-6.2734-14.504-14.145-14.949-0.070313-0.015625-0.14062-0.015625-0.21094-0.011719-0.21484-0.007812-0.42188-0.03125-0.64062-0.03125-3.3789 0-6.4922 1.1367-9 3.0312-0.10156 0.046876-0.19141 0.11328-0.26562 0.19922-2.293 1.8086-4.043 4.2695-4.9727 7.1016-0.007813 0.011718-0.019531 0.019531-0.023437 0.03125-0.015626 0.03125-0.011719 0.0625-0.023438 0.097656-0.45312 1.4297-0.70312 2.9492-0.70312 4.5312 0 6.3789 4 11.828 9.6172 13.996 0.046876 0.023437 0.089844 0.050781 0.14063 0.066406 0.015624 0.003906 0.035156 0.003906 0.050781 0.007812 1.6172 0.59766 3.3555 0.94141 5.1797 0.94141 2.2188 0 4.332-0.49219 6.3086-1.418 0.59375 1.2109 1.4531 2.7266 2.5234 3.9258l0.67578 0.75c-0.75391 0.85547-2.6094 2.9961-3.4414 4.2773-0.28516 0.44141-0.58984 0.69141-0.83203 0.69141h-0.003906c-0.21094-0.003906-0.46094-0.20312-0.65625-0.51953-0.13672-0.21875-0.26562-0.59375-0.41797-1.0273-0.42188-1.207-1.0586-3.0352-2.9297-4.7266-2.7305-2.4648-4.5898-1.8047-6.0117-1.3047-1.4141 0.5-2.8828 3.5391-3.457 4.8438-0.83594 0.39062-3.1055 1.6328-4.0977 4.0508-0.80078 1.9414-0.69531 3.668-0.53125 4.6406l-6.6094 1.6875c-0.375 0.09375-0.625 0.45313-0.58203 0.83594 0.011719 0.10938 0.3125 2.6641 3.4258 4.3984 1.5898 0.88672 3.6758 1 4.6289 1h0.003906c0.67188 1.0938 2.7578 3.7617 7.4531 4.6602 4.9023 0.9375 9.0547-0.75 10.25-1.3164 1.1641 0.4375 5.1562 1.6055 15.07 1.8008 0.39062 0.007812 0.76953 0.011719 1.1406 0.011719 9.6484 0 13.594-2.4844 14.613-3.2812 1.5859 0.035156 7.9141-0.26172 12.074-5.9531 2.6719-3.6562 3.2656-7.3984 2.9414-11.004-0.011719-0.49219-0.19531-8.4297 1.9727-12.766zm-28.645-2.8945c0.25781-0.45312 0.50781-0.85938 0.74219-1.2344 1.1836-1.8945 2.1133-3.3906 0.13281-5.957-3.0391-3.9297-3.8008-3.9336-4.0156-3.9219-0.33594-0.085938-3.3633-1.5352-3.0938-3.7031 0.14062-1.1367 0.54688-1.9297 1.1094-2.1719 0.5625-0.24609 1.1953 0.125 1.5195 0.36328l0.53906 0.39453c1.668 1.2227 3.5586 2.6055 5.7617 4.3867 2.332 1.8867 3.9492 3.6992 5.5742 6.2578 1.1094 1.7461 1.5391 2.9141 1.6875 3.4141-1.3711 1.1328-2.7461 2.7539-3.8594 5.4805-0.40625 0.99219-0.65234 1.9297-0.78125 2.8203-0.92188-0.17578-2.5938-0.37109-5.1406-0.21875-0.43359 0.027344-0.85547 0.0625-1.2656 0.10156-0.039062-1.1211-0.015625-4.0547 1.0898-6.0117zm-20.84-3.625c-0.42188-1.2891-0.97266-2.6484-1.707-4.0781-3.1328-6.1172-6.8203-8.8594-9.3477-10.082 2.0508-1.2695 4.457-2.0117 7.0352-2.0117 0.15625 0 0.3125 0.019531 0.46875 0.023437 2.1875 1.3477 5.3008 4.0625 8.0625 9.4648 1.9219 3.75 2.8945 7.4336 2.8984 10.977-0.023437 0.039062-0.046875 0.078125-0.070312 0.11719-0.03125-0.097656-0.0625-0.17969-0.097656-0.27734-0.83984-2.5-1.7109-5.082-3.5859-5.4141-1.2734-0.23047-2.25-0.054688-2.9961 0.51953-0.25781 0.20312-0.46875 0.46875-0.66016 0.76172zm9.4141-2.7422c0 1.4141-0.22266 2.7891-0.64062 4.0977-0.39453-2.8594-1.3477-5.793-2.8633-8.75-2.0078-3.9258-4.2109-6.5117-6.1641-8.2305 5.5742 1.6328 9.668 6.7852 9.668 12.883zm-26.859 0c0-1.082 0.14062-2.125 0.38281-3.1328 1.6406 0.97656 3.7188 2.8398 5.5625 6.4297 1.9961 3.9062 2.0898 7 1.832 8.8867-4.5859-2.1406-7.7773-6.7891-7.7773-12.184zm9.2695 12.781c0.40234-2.3359 0.30078-5.8242-1.9375-10.199-2.125-4.1367-4.5938-6.207-6.4844-7.25 0.83594-2.2383 2.2344-4.207 4.0508-5.6992 2.2539 0.87891 6.1328 3.2734 9.4453 9.7422 1.2539 2.4492 1.9648 4.6758 2.3359 6.6367 0.019531 0.53906 0.097656 1.0703 0.23047 1.582 0.24609 2.3242 0.015625 4.1836-0.28125 5.4648-1.0352 0.25391-2.1055 0.38281-3.2031 0.38281-1.4492 0.007812-2.8438-0.23047-4.1562-0.66016zm9.0586-0.25781c0.074219-0.43359 0.13672-0.90625 0.17969-1.4219 0.15234 0.23438 0.28516 0.42969 0.35938 0.53125 0.042969 0.10938 0.12109 0.30859 0.21875 0.53906-0.25 0.12109-0.5 0.25-0.75781 0.35156zm42.434 19.594c-4.1328 5.6562-10.977 5.3086-11.039 5.3047-0.22266-0.011719-0.4375 0.070312-0.59375 0.22266-0.035156 0.03125-3.5703 3.2891-14.902 3.0586-11.484-0.22656-14.746-1.7734-14.77-1.7891-0.23047-0.11719-0.50391-0.11719-0.73047 0.003906-0.042969 0.023438-4.4023 2.3164-9.5625 1.3281-5-0.95703-6.5234-4.1094-6.582-4.2422-0.13281-0.29688-0.46875-0.46484-0.76172-0.45703-0.023438 0-2.5977 0.14453-4.2773-0.79297-1.5195-0.84766-2.168-1.8945-2.4414-2.5547l6.5703-1.6758c0.011719-0.003906 0.015626-0.011719 0.027344-0.011719 0.007813-0.003906 0.015625 0 0.027344-0.003906 0.03125-0.011719 0.054688-0.035156 0.085938-0.050781 0.058593-0.027344 0.11719-0.054688 0.16406-0.09375 0.027344-0.023438 0.050781-0.054688 0.074219-0.082032 0.042969-0.046874 0.082031-0.089843 0.11328-0.14844 0.019531-0.035156 0.027344-0.070313 0.039062-0.10938 0.019532-0.058594 0.042969-0.11328 0.046876-0.17188 0.003906-0.046875-0.003907-0.089844-0.007813-0.13672s0.003906-0.09375-0.007813-0.14062c-0.003906-0.011719-0.011718-0.019531-0.011718-0.027343-0.003906-0.007813 0-0.019532-0.003906-0.027344-0.007813-0.019532-0.65234-2.0352 0.30859-4.3672 0.94922-2.3008 3.5039-3.3125 3.5312-3.3242 0.19531-0.078126 0.35547-0.23047 0.4375-0.42578 0.78516-1.8516 2.0742-4.0586 2.7266-4.2891 1.2539-0.44531 2.3438-0.83203 4.3828 1.0117 1.5781 1.4219 2.1133 2.957 2.5039 4.082 0.17969 0.51953 0.33594 0.96875 0.5625 1.332 0.48828 0.79297 1.2031 1.2539 1.9688 1.2617 0.58203-0.003906 1.4023-0.23047 2.1641-1.4023 0.72266-1.1172 2.3789-3.0391 3.1797-3.957 1.0977 1.25 1.9219 2.3281 2.2031 3.3828 0.42969 1.6094 0.32812 3.4844 0.32812 3.5-0.023437 0.42969 0.30469 0.80078 0.73438 0.82422h0.046874c0.41016 0 0.75391-0.32031 0.77734-0.73438 0.003906-0.085937 0.11719-2.1367-0.375-3.9961-0.46094-1.7227-1.8281-3.2344-3.5586-5.1484l-0.71875-0.79297c-1.8672-2.0859-3.1172-5.4531-3.1289-5.4883-0.027344-0.074219-0.066406-0.14453-0.11328-0.20703-0.015625-0.019531-1.207-1.5898-1.7266-3.4141-0.050781-0.48438-0.12109-0.98438-0.21484-1.5039 0-0.13281-0.019531-0.26953-0.011719-0.39844 0.09375-1.1367 0.375-1.8867 0.82812-2.2383 0.375-0.28906 0.95312-0.35938 1.7695-0.21875 0.96094 0.17188 1.7773 2.6016 2.3789 4.375 0.30859 0.91016 0.59766 1.7734 0.91797 2.4531 0.86328 1.8281 3.1836 3.1055 5.4258 4.3438 0.82422 0.45312 1.6367 0.90234 2.3516 1.3672 5.3945 3.5 5.0938 8.207 5.0781 8.418-0.035156 0.42969 0.28125 0.80469 0.71094 0.84375 0.42187 0.042969 0.80859-0.28125 0.84766-0.71094 0.019531-0.23047 0.39844-5.5234-5.3086-9.5273 1.2891-0.27344 3.1836-0.60938 5.3203-0.73438 2.6602-0.15625 4.2461 0.082031 4.9492 0.23438 0.039063 4.9922 3.7734 7.9648 3.8242 8 0.34375 0.26172 0.83203 0.19922 1.0977-0.14062 0.26172-0.34375 0.19922-0.83203-0.14062-1.0938-0.050781-0.039062-5.1211-4.0469-2.4492-10.566 1.6875-4.1211 3.957-5.4102 5.9609-6.5508 1.3594-0.77344 2.6484-1.5078 3.4805-2.9688 2.0742-3.625-0.92578-8.9844-1.0547-9.2109-0.11719-0.20703-0.34375-0.35156-0.57812-0.38672-0.070312-0.011718-1.7266-0.29297-3.0195-3.1758-0.53906-1.2031-0.67578-2.1055-0.39453-2.6172 0.21094-0.38281 0.71875-0.625 1.5508-0.74219 1.1055-0.17578 4.5 2.6875 5.5742 4.2422l0.32031 0.45703c1.4453 2.0352 5.2812 7.4375 5.2812 11.793 0 1.875-0.45312 3.543-0.89453 5.1602-0.70312 2.5781-1.4258 5.2461-0.31641 8.6719 1.7227 5.3047 3.207 11.449-0.97656 17.176zm2.4648-17.664c-0.96484-2.9883-0.33203-5.3164 0.33984-7.7812 0.46875-1.7109 0.94922-3.4844 0.94922-5.5703 0-4.8516-4.0469-10.551-5.5664-12.695l-0.3125-0.44141c-0.32031-0.46484-0.98438-1.2031-1.7969-1.9727-0.007812-0.0625-0.011719-0.125-0.039062-0.1875-0.070313-0.16797-1.7578-4.1055-6.582-5.6016-1.9766-0.61328-4.0391-0.76563-6.2227-0.92969-2.9531-0.22266-6.0078-0.44922-9.1602-1.8516-3.6406-1.6172-5.5781-4.3125-5.5508-6.0312 0.011718-0.75781 0.39062-1.2812 1.1562-1.5938 1.375-0.5625 2.043-0.003907 3.5625 1.4219 1.2422 1.168 2.7891 2.6172 5.3984 3.5859 1.7148 0.63672 3.6562 0.80859 5.7109 0.99219 4.8125 0.42969 10.262 0.91406 15.555 7.3242 8.0312 9.7344 7.3086 20.547 4.8633 25.438-1.0391 2.082-1.582 4.8398-1.8594 7.3242-0.14453-0.48047-0.29297-0.96094-0.44531-1.4297z"/>
 <path d="m53.746 73.809c-0.9375 1.2891-1.8516 1.3203-1.918 1.3203h-0.027344c-0.41016 0-0.75391 0.32031-0.78125 0.73438-0.027343 0.42969 0.30469 0.80078 0.73438 0.82422 0.015625 0 0.039063 0.003906 0.074219 0.003906 0.375 0 1.8438-0.125 3.1797-1.9648 0.25391-0.34766 0.17578-0.83594-0.17187-1.0898-0.34375-0.25391-0.83594-0.17969-1.0898 0.17188z"/>
 <path d="m37.781 71.211c-0.36719 0.22656-0.48047 0.70703-0.25781 1.0742 0.48047 0.78516 0.69141 1.7227 0.59375 2.6406-0.046876 0.42969 0.26562 0.8125 0.69531 0.85938 0.027344 0.003906 0.054688 0.003906 0.082031 0.003906 0.39453 0 0.73438-0.29687 0.77344-0.69922 0.13281-1.2578-0.15625-2.5469-0.81641-3.6211-0.22266-0.36719-0.70312-0.48047-1.0703-0.25781z"/>
<text x="0.0" y="117.5" font-size="5.0" font-weight="bold" font-family="Arbeit Regular, Helvetica, Arial-Unicode, Arial, Sans-serif" fill="#000000">Created by rali setiadi</text><text x="0.0" y="122.5" font-size="5.0" font-weight="bold" font-family="Arbeit Regular, Helvetica, Arial-Unicode, Arial, Sans-serif" fill="#000000">from Noun Project</text></svg>