<svg xmlns="http://www.w3.org/2000/svg" version="1.1" viewBox="-5.0 -10.0 110.0 135.0">
 <path d="m44.441 79.086c-0.41406 0-0.8125-0.17188-1.1016-0.51563-0.5-0.60156-0.42969-1.5 0.17188-2.0156 5.8125-4.8867 9.6016-10.5 11.258-16.699 0.19922-0.75781 0.98438-1.2148 1.7422-1.0156 0.75781 0.19922 1.2148 0.98438 1.0156 1.7422-1.8125 6.7695-5.9141 12.887-12.188 18.156-0.26953 0.23047-0.60156 0.32812-0.91406 0.32812z"/>
 <path d="m49.113 95.559c-5.3438 0-16.57-0.027344-22.77-0.027344-5.5156 0-10.27-3.5-11.855-8.7148-0.91406-3.0273-0.95703-6.5156-0.15625-10.645 1.2695-6.6445 4.6445-12.328 7.8867-17.828 2.5586-4.3281 5.2148-8.8125 6.7148-13.629 1.2578-4 1.6289-8.3438 1.9844-12.527 0.55859-6.5273 1.1289-13.285 4.9414-19.328 1.3711-2.1875 3.4727-3.8125 6.0703-4.7422 1.8008-0.62891 3.7148-1.0156 5.6719-1.1445 3.4844-0.24219 6.957 1.1875 9.3281 3.8438l3.1016 3.4844c0.42969 0.47266 0.94141 0.82812 1.5273 1.0586l5.6289 2.2695c1.543 0.62891 2.543 2.1562 2.5 3.8008-0.11328 3.3867-1.1445 5.9297-3.1719 7.7695-1.1445 1.0586-2.6562 1.7578-4.3438 2.0273l-3.8008 0.57031c-0.94141 0.14453-1.7695 0.64453-2.3281 1.4141-0.52734 0.73047-0.74219 1.6133-0.61328 2.5 1.5586 4.1875 2.543 8.2422 2.957 12.07 0.085937 0.78516-0.48438 1.4844-1.2695 1.5703-0.78516 0.10156-1.4844-0.48437-1.5703-1.2695-0.38672-3.6289-1.3438-7.5-2.8438-11.5-0.042969-0.11328-0.070313-0.23047-0.085937-0.34375-0.28516-1.6562 0.11328-3.3281 1.1016-4.6992 1.0156-1.3984 2.5156-2.3008 4.2305-2.5586l3.7852-0.57031c1.1289-0.17188 2.1133-0.62891 2.8438-1.3008 1.4297-1.3008 2.1562-3.1875 2.2422-5.7578 0-0.45703-0.28516-0.88672-0.73047-1.0703l-5.6133-2.2695c-0.98437-0.38672-1.8555-1-2.5859-1.8125l-3.1133-3.4844c-1.7852-2-4.4141-3.0586-7-2.8867-1.7148 0.11328-3.3711 0.44141-4.9141 0.98438-1.9844 0.69922-3.5703 1.9414-4.6016 3.5703-3.4414 5.4727-3.957 11.586-4.5156 18.059-0.37109 4.3438-0.75781 8.8438-2.1016 13.145-1.6016 5.1289-4.3438 9.7578-6.9844 14.23-3.2695 5.5273-6.3555 10.758-7.543 16.93-0.71484 3.6133-0.6875 6.7422 0.085937 9.2695 1.2148 3.9844 4.8711 6.6719 9.1133 6.6719 6.1992 0 17.43 0 22.77 0.027344 0.28516 0 0.45703-0.17188 0.52734-0.26953 0.070313-0.10156 0.1875-0.32812 0.085938-0.61328-0.78516-2.2578-2.8125-3.6445-5.1289-3.6719l-5.0586 0.042969c-0.54297 0-1.043-0.3125-1.2852-0.80078-0.24219-0.48438-0.1875-1.0703 0.15625-1.5156 2.3711-3.0273 3.9297-5.9141 4.6445-8.5703 2.1875-8.0273-3.9727-11.688-4.2305-11.844-0.6875-0.39844-0.91406-1.2695-0.52734-1.9414 0.38672-0.6875 1.2578-0.92969 1.9414-0.54297 0.085937 0.042969 8.3555 4.8555 5.5703 15.07-0.62891 2.3125-1.7852 4.7422-3.457 7.2578h2.2305c3.5273-0.042968 6.6562 2.1562 7.8008 5.4844 0.41406 1.1719 0.24219 2.3711-0.41406 3.3008-0.65625 0.92969-1.7305 1.4727-2.8555 1.4727z"/>
 <path d="m56.371 61.656h-9.3281c-0.78516 0-1.4297-0.64453-1.4297-1.4297 0-0.78516 0.64453-1.4297 1.4297-1.4297h9.3281c2.0273 0 3.8867-1.2695 4.6289-3.1562l2.8438-7.3125c0.32812-0.84375 1.043-1.4414 1.8984-1.6289 1-0.21484 2.0586 0.15625 2.8984 1l2.5273 2.5273c0.26953 0.26953 0.64453 0.38672 1.0156 0.35547 0.19922-0.015625 0.55859-0.11328 0.78516-0.47266 0.34375-0.52734 0.58594-1.2852 0.6875-2.2422 0.042969-0.32813-0.070312-0.67188-0.30078-0.92969l-2.9297-3.3008c-1.1445-1.2852-2.8008-2.0273-4.5156-2.0273-2.1445 0-4.1445 1.1562-5.2305 3.0156l-1.957 3.3555c-1.0273 1.7578-3.1719 2.5859-5.1133 1.9727l-3.2305-1.043c-0.75781-0.24219-1.1562-1.043-0.92969-1.8008 0.24219-0.75781 1.043-1.1562 1.8008-0.92969l3.2305 1.043c0.67188 0.21484 1.4141-0.070312 1.7695-0.67188l1.957-3.3555c1.5859-2.7305 4.543-4.4297 7.6992-4.4297 2.543 0 4.957 1.0859 6.6562 2.9844l2.9297 3.2852c0.76953 0.87109 1.1445 2.0156 1 3.1562-0.17188 1.3984-0.54297 2.5703-1.1445 3.4727-0.64453 0.98438-1.6992 1.6289-2.8867 1.7422-1.2422 0.12891-2.457-0.30078-3.3281-1.1875l-2.5273-2.5273c-0.070313-0.070312-0.14453-0.12891-0.19922-0.15625l-2.7695 7.1133c-1.1719 3.0273-4.043 4.9844-7.2852 4.9844z"/>
 <path d="m45.941 29.188c-2.3867 0-4.6445-0.88672-6.2695-1.7305-1.6719-0.87109-2.8867-2.3281-3.4141-4.1133-0.23047-0.75781 0.19922-1.5586 0.95703-1.7852 0.75781-0.23047 1.5586 0.19922 1.7852 0.95703 0.3125 1.043 1.0273 1.8984 2 2.3984 1.6445 0.85547 4.0703 1.7578 6.2695 1.2578 0.30078-0.070313 0.51562-0.37109 0.5-0.69922-0.25781-4.4727-0.98438-8.1016-1.9727-9.9414-0.37109-0.69922-0.11328-1.5586 0.58594-1.9297 0.69922-0.37109 1.5586-0.11328 1.9297 0.58594 1.6133 3 2.1445 8.2578 2.3125 11.129 0.10156 1.7305-1.043 3.2695-2.7148 3.6562-0.65625 0.14453-1.3125 0.21484-1.957 0.21484z"/>
 <path d="m15.102 83.629c-0.1875 0-0.35547-0.027344-0.54297-0.10156-5.7305-2.3281-9.6133-5.9727-11.559-10.844-3.5703-8.957 0.75781-18.73 0.94141-19.145 0.26953-0.60156 0.89844-0.92969 1.543-0.8125 0.64453 0.11328 1.1289 0.64453 1.1719 1.3008 0.39844 5.2578 2.0859 9.4844 5 12.559 0.54297 0.57031 0.51562 1.4727-0.058594 2.0156-0.57031 0.54297-1.4727 0.51563-2.0156-0.058593-1.6133-1.6992-3.4844-4.3555-4.6719-8.2852-0.61328 3.2422-0.82812 7.457 0.74219 11.371 1.6445 4.1133 5 7.2148 9.9727 9.2422 0.73047 0.30078 1.0859 1.1289 0.78516 1.8555-0.23047 0.55859-0.75781 0.88672-1.3281 0.88672z"/>
 <path d="m86.016 29.188c-6.8281 0-12.371-5.5586-12.371-12.371s5.5586-12.371 12.371-12.371 12.371 5.5586 12.371 12.371-5.5586 12.371-12.371 12.371zm0-21.887c-5.2422 0-9.5156 4.2695-9.5156 9.5156 0 5.2422 4.2695 9.5156 9.5156 9.5156 5.2422 0 9.5156-4.2695 9.5156-9.5156 0-5.2422-4.2695-9.5156-9.5156-9.5156z"/>
 <path d="m75.688 18.742c-0.62891 0-1.1992-0.41406-1.3711-1.0586-0.19922-0.75781 0.24219-1.543 1-1.7578 5.1445-1.3867 8.3555-4.6133 9.8281-9.8281 0.21484-0.75781 1-1.1992 1.7578-0.98438 0.75781 0.21484 1.1992 1 0.98438 1.7578-1.7422 6.1875-5.7148 10.172-11.828 11.828-0.12891 0.027343-0.24219 0.042969-0.37109 0.042969z"/>
 <path d="m85.516 28.57c-0.085937 0-0.1875 0-0.28516-0.027343-0.76953-0.15625-1.2695-0.91406-1.1133-1.6875 1.3281-6.6445 5.3555-10.672 11.957-11.941 0.76953-0.15625 1.5273 0.35547 1.6719 1.1289 0.14453 0.76953-0.35547 1.5273-1.1289 1.6719-5.4297 1.0586-8.6016 4.2305-9.6992 9.6992-0.14453 0.6875-0.73047 1.1445-1.3984 1.1445z"/>
<text x="0.0" y="117.5" font-size="5.0" font-weight="bold" font-family="Arbeit Regular, Helvetica, Arial-Unicode, Arial, Sans-serif" fill="#000000">Created by trimenz</text><text x="0.0" y="122.5" font-size="5.0" font-weight="bold" font-family="Arbeit Regular, Helvetica, Arial-Unicode, Arial, Sans-serif" fill="#000000">from Noun Project</text></svg>